<?xml version="1.0" encoding="utf-8"?><svg xmlns="http://www.w3.org/2000/svg" xmlns:xlink="http://www.w3.org/1999/xlink"><symbol viewBox="0 0 31 33" id="adress" xmlns="http://www.w3.org/2000/svg"><path d="M3.167 8.47v19.77l7.808-3.345 9.25 4.625 7.608-3.263V6.487l2.01-.86a.771.771 0 011.074.71v21.955l-10.792 4.625-9.25-4.625-9.717 4.164a.771.771 0 01-1.075-.71V9.793L3.167 8.47zm18.874 7.863l-6.541 6.54-6.541-6.54a9.25 9.25 0 1113.082 0zm-6.541 2.18l4.36-4.362a6.166 6.166 0 10-8.72 0l4.36 4.362z"/></symbol><symbol viewBox="0 0 128 110" id="cam" xmlns="http://www.w3.org/2000/svg"><path d="M92.912 53.006c1.746.635 4.104.9 6.476.796 2.372-.103 4.698-.572 6.381-1.357l2.998-1.398h.002a.175.175 0 01.009-.005l-.004.002m-15.862 1.962l15.862-1.962m-15.862 1.962l-57.853-21.02a2.5 2.5 0 00-3.203 1.495 2.5 2.5 0 001.496 3.204l57.851 21.02c2.082.757 4.624 1.12 7.197 1.12 2.439 0 4.93-.328 7.114-.97l-4.19 11.515a5.507 5.507 0 01-7.05 3.286L8.23 41.376a5.507 5.507 0 01-3.287-7.05l3.098-8.512a10.44 10.44 0 004.636 3.346l1.88.684a2.5 2.5 0 101.71-4.699l-1.88-.683a5.507 5.507 0 01-3.288-7.049l.683-1.877.004-.01 2.05-5.632a5.507 5.507 0 017.05-3.287l101.078 36.754c.609.221 1.009.441 1.258.615.04.028.075.053.106.078a3.662 3.662 0 01-.098.086c-.234.195-.613.449-1.201.723l-10.687 4.983m-18.43 3.16l18.637-2.705m-2.775.743l.008-.004m-.008.004l.008-.004m0 0l.004-.002h.002l-.006.002zm0 0l-.002.001 2.55-1.19m-2.548 1.19l2.767-.74m-.219-.45a.098.098 0 00-.008.005l.224.447-.212-.453-.004.002zm0 0a.199.199 0 01.012-.005m0 0l-.004.002.211.453m-.207-.455l.02-.008.187.463m-2.778.744l.169.363.042.09-.211-.453zm0 0h.002-.002zm14.902-12.383L22.595 1.909c-5.44-1.98-11.478.834-13.458 6.275L6.41 15.676l-.01.025-.001.005-6.155 16.91c-1.98 5.441.835 11.478 6.277 13.458l29.076 10.57a12.421 12.421 0 002.396 9.1l-6.181 16.983.47.171-.47-.17c-.217.595-.79.997-1.426.997H12.5v-5.5c0-3.585-2.915-6.5-6.5-6.5H2a2.5 2.5 0 00-2.5 2.5v32a2.5 2.5 0 002.5 2.5h4c3.585 0 6.5-2.916 6.5-6.5v-5.5h17.886c6.082 0 11.563-3.839 13.642-9.553l6.042-16.6a12.41 12.41 0 008.451-5.593l34.043 12.376c1.18.43 2.39.634 3.58.634 3.475 0 6.783-1.738 8.739-4.663l3.575 1.3a4.486 4.486 0 003.439-.15l-.211-.452.211.453a4.47 4.47 0 002.325-2.538l5.474-15.04a4.5 4.5 0 00-1.207-4.869l5.653-2.636c1.897-.884 3.01-1.923 3.637-2.936.628-1.014.746-1.964.717-2.63-.029-.666-.23-1.603-.944-2.558-.713-.954-1.912-1.892-3.879-2.608zm-84.344 46.8a9.547 9.547 0 01-8.943 6.263H12.5v-3h17.886c2.73 0 5.19-1.722 6.124-4.288l-.47-.17.47.17 5.54-15.217a12.69 12.69 0 002.79 1.1l-5.51 15.142zM7.5 102.225c0 .826-.673 1.5-1.5 1.5H4.5v-27H6c.827 0 1.5.673 1.5 1.5v24zm46.125-39.026a7.434 7.434 0 01-5.504 2.533 7.571 7.571 0 01-2.686-.46 7.542 7.542 0 01-2.68-1.673 2.446 2.446 0 00-.262-.267 7.445 7.445 0 01-1.999-4.907L53.625 63.2zm58.886-8.38l2.316.84-5.128 14.099-2.822-1.027 4.947-13.593.687-.32z"/></symbol><symbol viewBox="0 0 512 512" id="coffee-cup" xmlns="http://www.w3.org/2000/svg"><path d="M502 206.5h-82v-21.167c0-5.523-4.478-10-10-10H194c-5.522 0-10 4.477-10 10s4.478 10 10 10h206v76.666c0 67.348-35.957 129.942-94.018 164H114.018C55.957 401.942 20 339.347 20 272v-76.666h67c5.522 0 10-4.477 10-10s-4.478-10-10-10H10c-5.522 0-10 4.477-10 10V272c0 37.8 10.16 74.864 29.382 107.183C42.345 400.98 59.165 420.228 78.862 436H10c-5.522 0-10 4.477-10 10 0 36.393 29.607 66 66 66h312c36.393 0 66-29.607 66-66 0-5.523-4.478-10-10-10h-92.862a211.208 211.208 0 0046.302-51.667h28.227C468.785 384.333 512 341.118 512 288v-71.5c0-5.523-4.477-10-10-10zM422.905 456c-4.578 20.572-22.974 36-44.905 36H66c-21.931 0-40.326-15.428-44.905-36h401.81zM420 272v-5.5h32V288c0 20.034-16.299 36.333-36.333 36.333h-2.271A210.508 210.508 0 00420 272zm72 16c0 42.09-34.243 76.333-76.333 76.333h-17.02a208.8 208.8 0 008.537-20h8.483C446.73 344.333 472 319.062 472 288v-31.5c0-5.523-4.478-10-10-10h-42v-20h72V288zM219.549 55.343l-5.203-6.533c-7.638-9.588-7.649-22.991-.027-32.593 3.434-4.326 2.71-10.616-1.616-14.049-4.327-3.435-10.616-2.71-14.05 1.616-13.442 16.936-13.422 40.575.049 57.487l5.203 6.533c9.981 12.53 9.996 30.045.036 42.594l-5.332 6.718c-3.434 4.326-2.71 10.616 1.616 14.049a9.96 9.96 0 006.21 2.168 9.984 9.984 0 007.84-3.784l5.332-6.718c15.78-19.882 15.757-47.634-.058-67.488zm55.429 22.484l-5.203-6.532c-7.638-9.589-7.649-22.992-.027-32.594 3.434-4.326 2.71-10.616-1.616-14.049-4.327-3.435-10.616-2.71-14.05 1.616-13.442 16.936-13.422 40.575.049 57.488l5.203 6.533c9.98 12.531 9.995 30.047.035 42.595l-5.331 6.717c-3.434 4.326-2.71 10.616 1.616 14.049a9.959 9.959 0 006.21 2.167 9.985 9.985 0 007.84-3.784l5.33-6.717c15.781-19.881 15.758-47.633-.056-67.489zm-110.858.001l-5.203-6.532c-7.638-9.588-7.649-22.992-.028-32.594 3.434-4.326 2.71-10.616-1.616-14.05-4.327-3.434-10.616-2.708-14.05 1.616-13.441 16.936-13.421 40.576.05 57.488l5.203 6.533c9.98 12.531 9.995 30.047.036 42.594l-5.332 6.717c-3.434 4.326-2.711 10.616 1.615 14.05a9.958 9.958 0 006.21 2.168 9.982 9.982 0 007.839-3.783l5.333-6.718c15.78-19.881 15.757-47.633-.057-67.489z"/><path d="M150.28 178.26c-1.86-1.86-4.44-2.93-7.07-2.93s-5.21 1.07-7.07 2.93c-1.859 1.87-2.93 4.44-2.93 7.07s1.07 5.21 2.93 7.08c1.86 1.86 4.44 2.92 7.07 2.92s5.21-1.06 7.07-2.92a10.06 10.06 0 002.93-7.08c0-2.63-1.061-5.21-2.93-7.07zM362 262c-5.522 0-10 4.477-10 10 0 37.119-15.056 73.598-41.308 100.083-3.888 3.922-3.859 10.254.063 14.142a9.968 9.968 0 007.04 2.898 9.974 9.974 0 007.103-2.962C354.832 355.961 372 314.351 372 272c0-5.523-4.478-10-10-10zm-68.115 137.225c-2.714-4.811-8.813-6.51-13.623-3.797l-.228.129c-4.811 2.714-6.51 8.813-3.797 13.623a9.996 9.996 0 0013.623 3.797l.228-.129c4.811-2.714 6.51-8.813 3.797-13.623z"/></symbol><symbol viewBox="0 0 124 100" id="credit-card" xmlns="http://www.w3.org/2000/svg"><path d="M120.61 3.79C118.68 1.858 116.374.9 113.667.9H10.333C7.625.9 5.32 1.86 3.39 3.79m117.221 0L3.035 96.563C1.011 94.54 0 92.108 0 89.266V10.733C0 7.892 1.011 5.46 3.035 3.436l.353.353m117.222 0c1.931 1.931 2.89 4.236 2.89 6.944v78.532c0 2.71-.959 5.015-2.89 6.945-1.93 1.93-4.236 2.89-6.943 2.89H10.333c-2.708 0-5.013-.96-6.944-2.89M120.61 3.79L3.389 96.21m0-92.42C1.457 5.72.5 8.024.5 10.732v78.532c0 2.71.958 5.015 2.889 6.945m0-92.42v92.42m112.083-5.135l.001-.001a2.51 2.51 0 00.712-1.307h.048V49.5H7.767v39.766c0 .698.261 1.306.76 1.806v.001c.5.499 1.11.76 1.806.76h103.334a2.49 2.49 0 001.805-.758zM7.767 25.2v.5h107.965v-.5h.5V10.732c0-.697-.26-1.306-.759-1.806-.5-.5-1.11-.76-1.806-.76H10.333a2.49 2.49 0 00-1.806.76c-.5.5-.76 1.11-.76 1.806V25.2z"/><path d="M17.034 82.566V75.3h15.533v7.267H17.034zm24.8 0V75.3h23.8v7.267h-23.8z"/></symbol><symbol viewBox="0 0 34 27" id="email" xmlns="http://www.w3.org/2000/svg"><path d="M33.72 25.444a1.455 1.455 0 01-.444 1.032c-.282.274-.663.43-1.06.432H4.895c-.4 0-.782-.155-1.064-.43a1.444 1.444 0 01-.44-1.034v-1.486h27.295V6.701L18.555 17.32 3.391 4.046V1.833c0-.39.16-.766.445-1.043A1.54 1.54 0 014.908.358h27.295c.402 0 .788.156 1.072.432.285.277.444.652.444 1.043v23.61zM7.081 3.308l11.473 10.045L30.03 3.308H7.082zM.36 18.058h12.13v2.95H.36v-2.95zm0-7.375h7.58v2.95H.359v-2.95z"/></symbol><symbol viewBox="0 0 35 35" id="gear" xmlns="http://www.w3.org/2000/svg"><mask id="fa"><path d="M33.209 13.826l-2.457-.417a13.877 13.877 0 00-.987-2.383L31.212 9c.615-.862.52-2.04-.233-2.785l-2.18-2.18a2.146 2.146 0 00-2.778-.233L23.99 5.25c-.79-.417-1.616-.76-2.472-1.017l-.409-2.427A2.16 2.16 0 0018.973 0h-3.078c-1.06 0-1.96.76-2.135 1.806l-.424 2.486a13.55 13.55 0 00-2.376 1.001L8.95 3.846a2.146 2.146 0 00-1.258-.402 2.13 2.13 0 00-1.528.636L3.977 6.259a2.164 2.164 0 00-.234 2.785L5.206 11.1a13.55 13.55 0 00-.973 2.39l-2.427.41A2.16 2.16 0 000 16.034v3.078c0 1.06.76 1.96 1.806 2.135l2.486.424a13.55 13.55 0 001.001 2.376l-1.44 2.004a2.155 2.155 0 00.234 2.785l2.179 2.179a2.146 2.146 0 002.778.234l2.055-1.462a13.8 13.8 0 002.31.95l.41 2.457A2.16 2.16 0 0015.953 35h3.086c1.06 0 1.96-.76 2.135-1.806l.417-2.457a13.874 13.874 0 002.383-.987L26 31.198a2.15 2.15 0 001.258.402c.578 0 1.119-.227 1.528-.636l2.179-2.179A2.164 2.164 0 0031.198 26l-1.448-2.032c.402-.768.739-1.565.987-2.384l2.457-.41A2.16 2.16 0 0035 19.04v-3.08a2.134 2.134 0 00-1.791-2.135zm-.169 5.213a.19.19 0 01-.16.19l-3.071.512a.982.982 0 00-.79.724 11.707 11.707 0 01-1.272 3.063.988.988 0 00.044 1.075l1.806 2.544a.2.2 0 01-.022.249l-2.18 2.179a.186.186 0 01-.138.058.18.18 0 01-.11-.036L24.61 27.79a.988.988 0 00-1.075-.044c-.957.57-1.988.994-3.063 1.272a.97.97 0 00-.724.79l-.519 3.07a.19.19 0 01-.19.161H15.96a.19.19 0 01-.19-.16l-.512-3.071a.982.982 0 00-.724-.79 12.151 12.151 0 01-2.998-1.228 1.012 1.012 0 00-.497-.132.962.962 0 00-.57.183l-2.559 1.82a.217.217 0 01-.11.037.196.196 0 01-.139-.059l-2.178-2.178a.198.198 0 01-.022-.249l1.798-2.522a1 1 0 00.044-1.082 11.594 11.594 0 01-1.287-3.057 1.001 1.001 0 00-.79-.723l-3.092-.527a.19.19 0 01-.16-.19v-3.078a.19.19 0 01.16-.19l3.049-.512a.989.989 0 00.797-.731c.27-1.075.687-2.113 1.25-3.07a.976.976 0 00-.051-1.068l-1.82-2.56a.2.2 0 01.021-.248l2.18-2.178a.186.186 0 01.139-.058.18.18 0 01.11.036l2.522 1.799c.322.227.746.241 1.082.044a11.58 11.58 0 013.056-1.287c.373-.102.658-.41.724-.79l.527-3.092a.19.19 0 01.19-.161h3.078a.19.19 0 01.19.16l.512 3.05c.066.387.35.701.73.796 1.105.278 2.158.71 3.137 1.287a.989.989 0 001.075-.044l2.523-1.813a.218.218 0 01.11-.036c.029 0 .087.007.138.058l2.179 2.179a.198.198 0 01.022.248l-1.806 2.537a.988.988 0 00-.044 1.075c.57.958.994 1.989 1.272 3.064a.97.97 0 00.79.724l3.07.519a.19.19 0 01.162.19v3.078h-.008z"/></mask><path d="M33.209 13.826l-2.457-.417a13.877 13.877 0 00-.987-2.383L31.212 9c.615-.862.52-2.04-.233-2.785l-2.18-2.18a2.146 2.146 0 00-2.778-.233L23.99 5.25c-.79-.417-1.616-.76-2.472-1.017l-.409-2.427A2.16 2.16 0 0018.973 0h-3.078c-1.06 0-1.96.76-2.135 1.806l-.424 2.486a13.55 13.55 0 00-2.376 1.001L8.95 3.846a2.146 2.146 0 00-1.258-.402 2.13 2.13 0 00-1.528.636L3.977 6.259a2.164 2.164 0 00-.234 2.785L5.206 11.1a13.55 13.55 0 00-.973 2.39l-2.427.41A2.16 2.16 0 000 16.034v3.078c0 1.06.76 1.96 1.806 2.135l2.486.424a13.55 13.55 0 001.001 2.376l-1.44 2.004a2.155 2.155 0 00.234 2.785l2.179 2.179a2.146 2.146 0 002.778.234l2.055-1.462a13.8 13.8 0 002.31.95l.41 2.457A2.16 2.16 0 0015.953 35h3.086c1.06 0 1.96-.76 2.135-1.806l.417-2.457a13.874 13.874 0 002.383-.987L26 31.198a2.15 2.15 0 001.258.402c.578 0 1.119-.227 1.528-.636l2.179-2.179A2.164 2.164 0 0031.198 26l-1.448-2.032c.402-.768.739-1.565.987-2.384l2.457-.41A2.16 2.16 0 0035 19.04v-3.08a2.134 2.134 0 00-1.791-2.135zm-.169 5.213a.19.19 0 01-.16.19l-3.071.512a.982.982 0 00-.79.724 11.707 11.707 0 01-1.272 3.063.988.988 0 00.044 1.075l1.806 2.544a.2.2 0 01-.022.249l-2.18 2.179a.186.186 0 01-.138.058.18.18 0 01-.11-.036L24.61 27.79a.988.988 0 00-1.075-.044c-.957.57-1.988.994-3.063 1.272a.97.97 0 00-.724.79l-.519 3.07a.19.19 0 01-.19.161H15.96a.19.19 0 01-.19-.16l-.512-3.071a.982.982 0 00-.724-.79 12.151 12.151 0 01-2.998-1.228 1.012 1.012 0 00-.497-.132.962.962 0 00-.57.183l-2.559 1.82a.217.217 0 01-.11.037.196.196 0 01-.139-.059l-2.178-2.178a.198.198 0 01-.022-.249l1.798-2.522a1 1 0 00.044-1.082 11.594 11.594 0 01-1.287-3.057 1.001 1.001 0 00-.79-.723l-3.092-.527a.19.19 0 01-.16-.19v-3.078a.19.19 0 01.16-.19l3.049-.512a.989.989 0 00.797-.731c.27-1.075.687-2.113 1.25-3.07a.976.976 0 00-.051-1.068l-1.82-2.56a.2.2 0 01.021-.248l2.18-2.178a.186.186 0 01.139-.058.18.18 0 01.11.036l2.522 1.799c.322.227.746.241 1.082.044a11.58 11.58 0 013.056-1.287c.373-.102.658-.41.724-.79l.527-3.092a.19.19 0 01.19-.161h3.078a.19.19 0 01.19.16l.512 3.05c.066.387.35.701.73.796 1.105.278 2.158.71 3.137 1.287a.989.989 0 001.075-.044l2.523-1.813a.218.218 0 01.11-.036c.029 0 .087.007.138.058l2.179 2.179a.198.198 0 01.022.248l-1.806 2.537a.988.988 0 00-.044 1.075c.57.958.994 1.989 1.272 3.064a.97.97 0 00.79.724l3.07.519a.19.19 0 01.162.19v3.078h-.008z" mask="url(#fa)"/></symbol><symbol viewBox="0 0 512 512" id="gears" xmlns="http://www.w3.org/2000/svg"><path d="M347.456 332.907c.427-4.267.683-8.533.683-12.907s-.256-8.768-.683-13.163l33.941-26.624c7.446-6.164 9.317-16.821 4.416-25.152l-36.267-62.827c-5.002-8.284-15.228-11.782-24.256-8.299l-39.531 15.915a141.53 141.53 0 00-22.4-13.099l-5.995-42.56a20.16 20.16 0 00-19.627-16.192h-72.533c-9.774.168-18.032 7.295-19.627 16.939l-5.931 42.133a148.93 148.93 0 00-22.272 13.035l-39.872-16c-9.042-3.358-19.191.235-24.107 8.533L17.107 255.21c-5.053 8.499-3.068 19.421 4.651 25.6l33.749 26.283c-.427 4.267-.661 8.533-.661 12.907s.256 8.768.683 13.163l-33.92 26.603c-7.483 6.135-9.392 16.802-4.501 25.152l36.267 62.827c5.004 8.294 15.243 11.794 24.277 8.299l39.531-15.893a142.975 142.975 0 0022.4 13.099l5.995 42.517a20.14 20.14 0 0019.627 16.235h72.533c9.774-.187 18.025-7.316 19.627-16.96l5.909-42.112a149.638 149.638 0 0022.379-13.056l39.765 16c9.042 3.395 19.215-.206 24.107-8.533l36.267-62.549c5.048-8.495 3.074-19.41-4.629-25.6l-33.707-26.285zM201.472 384c-35.346 0-64-28.654-64-64s28.654-64 64-64 64 28.654 64 64-28.654 64-64 64z"/><path d="M492.309 124.011l-.533-.448-15.851-12.288c.128-1.515.192-3.051.192-4.629s0-3.157-.128-4.715l16.149-12.672a15.701 15.701 0 003.285-19.456l-19.2-33.024a15.722 15.722 0 00-19.2-6.869l-18.389 7.403a76.778 76.778 0 00-8.043-4.672l-2.688-18.816C427.155 5.976 420.556-.014 412.672 0h-38.4a15.68 15.68 0 00-15.36 13.184l-2.837 19.648a89.624 89.624 0 00-7.957 4.565l-18.773-7.552a15.829 15.829 0 00-18.859 6.784l-19.328 33.472a15.361 15.361 0 003.968 19.627l15.808 12.373c0 1.493-.107 3.029-.107 4.565 0 1.536 0 3.072.107 4.565l-16.299 12.8a15.722 15.722 0 00-3.328 19.477l19.2 33.024a15.785 15.785 0 0019.2 6.869L348.096 176a76.744 76.744 0 008.021 4.672l2.837 19.712a15.446 15.446 0 0015.317 12.971h38.4a15.744 15.744 0 0015.36-13.184l2.816-19.669a81.832 81.832 0 007.872-4.523l18.859 7.552a15.721 15.721 0 0018.837-6.784l19.349-33.472a15.614 15.614 0 00-3.455-19.264zm-98.837 25.322c-23.564 0-42.667-19.103-42.667-42.667S369.907 64 393.472 64c23.564 0 42.667 19.103 42.667 42.667s-19.103 42.666-42.667 42.666z"/></symbol><symbol viewBox="0 0 27 33" id="location" xmlns="http://www.w3.org/2000/svg"><path d="M13.276 28.02l7.298-7.099a9.957 9.957 0 002.824-5.14 9.784 9.784 0 00-.587-5.8 10.103 10.103 0 00-3.801-4.504 10.527 10.527 0 00-5.734-1.692c-2.04 0-4.036.59-5.733 1.692a10.104 10.104 0 00-3.801 4.505 9.784 9.784 0 00-.587 5.8 9.957 9.957 0 002.824 5.14l7.297 7.098zm0 4.055L3.894 22.95a12.801 12.801 0 01-3.631-6.608 12.58 12.58 0 01.755-7.457 12.99 12.99 0 014.887-5.792A13.535 13.535 0 0113.276.917c2.625 0 5.19.757 7.372 2.175a12.99 12.99 0 014.887 5.792 12.58 12.58 0 01.755 7.457 12.802 12.802 0 01-3.631 6.608l-9.383 9.126zm0-15.384a2.99 2.99 0 002.085-.84 2.829 2.829 0 00.864-2.028c0-.76-.31-1.49-.864-2.028a2.99 2.99 0 00-2.085-.84 2.99 2.99 0 00-2.085.84 2.83 2.83 0 00-.863 2.028c0 .76.31 1.49.863 2.028a2.99 2.99 0 002.085.84zm0 2.868a5.982 5.982 0 01-4.17-1.68 5.658 5.658 0 01-1.727-4.056c0-1.521.622-2.98 1.727-4.056a5.982 5.982 0 014.17-1.68c1.564 0 3.064.604 4.17 1.68a5.658 5.658 0 011.727 4.056c0 1.521-.62 2.98-1.727 4.056a5.982 5.982 0 01-4.17 1.68z"/></symbol><symbol viewBox="0 0 190 190" id="lol" xmlns="http://www.w3.org/2000/svg"><g clip-path="url(#iclip0)" filter="url(#ifilter0_d)"><path d="M108.788 121.436l.039-.327c.325-2.772.326-5.576.001-8.343l-.038-.327.285-.164a266.56 266.56 0 004.162-2.451h.001c2.067-1.242 2.937-3.862 2.029-6.101l-.014-.034-2.989-7.216c-.93-2.246-3.41-3.499-5.763-2.913-1.538.383-3.11.79-4.677 1.21l-.318.086-.204-.258a35.827 35.827 0 00-5.9-5.898l-.258-.204.085-.318c.42-1.567.828-3.14 1.21-4.679.587-2.351-.666-4.832-2.912-5.763l-7.216-2.988c-2.246-.931-4.886-.063-6.135 2.014a272.115 272.115 0 00-2.451 4.165l-.165.285-.327-.038a35.836 35.836 0 00-8.343-.002l-.326.039-.165-.285a270.34 270.34 0 00-2.45-4.163c-1.25-2.078-3.89-2.946-6.136-2.015l-7.215 2.988c-2.246.93-3.5 3.412-2.913 5.763.384 1.542.79 3.115 1.21 4.677l.086.318-.259.204a35.815 35.815 0 00-5.898 5.9l-.203.259-.319-.085a269.05 269.05 0 00-4.679-1.212c-2.352-.586-4.832.668-5.763 2.914l74.928 24.962zm0 0l.285.164c1.401.808 2.801 1.632 4.165 2.452 2.077 1.248 2.945 3.888 2.016 6.135l-2.989 7.216c-.931 2.246-3.412 3.499-5.763 2.913a274.78 274.78 0 01-4.679-1.211l-.318-.085-.204.258a35.824 35.824 0 01-5.898 5.9l-.258.204.085.318c.423 1.576.83 3.148 1.21 4.677.587 2.352-.666 4.833-2.912 5.763l-7.216 2.989c-2.246.93-4.886.062-6.135-2.015a272.33 272.33 0 01-2.45-4.164l-.165-.285-.327.039a35.925 35.925 0 01-8.343-.002l-.326-.038-.165.285a272.821 272.821 0 01-2.451 4.164c-.91 1.513-2.56 2.387-4.262 2.387a4.89 4.89 0 01-1.875-.372l-7.215-2.989-.192.462.192-.462c-2.246-.93-3.5-3.411-2.913-5.763.383-1.537.79-3.11 1.21-4.678l.086-.318-.258-.204a35.89 35.89 0 01-5.9-5.898l-.205-.258-.318.085c-1.567.421-3.14.828-4.676 1.21-2.353.587-4.833-.667-5.763-2.913l-2.99-7.215c-.93-2.247-.061-4.887 2.016-6.135a271.05 271.05 0 014.163-2.451l.286-.165-.039-.327a35.847 35.847 0 01.002-8.342l.038-.327-.285-.165a267.895 267.895 0 01-4.165-2.452c-2.076-1.248-2.945-3.888-2.015-6.134l2.988-7.215 74.928 24.962zM44.432 94.289a36.317 36.317 0 015.98-5.983c-.42-1.566-.828-3.141-1.212-4.686l-4.768 10.669zm0 0c-1.573-.423-3.149-.83-4.688-1.214l4.688 1.214zm63.336 41.376l-.419-.105a261.26 261.26 0 01-4.503-1.171 4.936 4.936 0 00-5.193 1.731 30.993 30.993 0 01-5.411 5.412 4.935 4.935 0 00-1.727 5.191c.407 1.515.8 3.027 1.17 4.502l.105.418-.399.165-6.632 2.747-.399.165-.221-.37a265.563 265.563 0 01-2.356-4.01 4.935 4.935 0 00-4.892-2.449 31.055 31.055 0 01-7.652-.002 4.935 4.935 0 00-4.896 2.449 273.34 273.34 0 01-2.357 4.012l-.221.37-.399-.165-6.632-2.747-.399-.165.105-.419a271.14 271.14 0 011.171-4.503 4.936 4.936 0 00-1.73-5.193 30.99 30.99 0 01-5.413-5.411 4.934 4.934 0 00-5.191-1.727c-1.507.406-3.02.799-4.501 1.17l-.419.105-.165-.398-2.747-6.633-.165-.398.37-.222c1.313-.787 2.66-1.578 4.01-2.355a4.935 4.935 0 002.45-4.892 31.048 31.048 0 010-7.653 4.936 4.936 0 00-2.448-4.896 268.748 268.748 0 01-4.012-2.357l-.37-.222.165-.398 2.747-6.633.165-.398.419.105c1.48.37 2.993.764 4.502 1.17a4.939 4.939 0 005.194-1.73l59.296 37.91zm0 0l.165-.399m-.165.399l.165-.399m0 0l2.746-6.633.165-.398-.37-.222a259.836 259.836 0 00-4.012-2.356 4.938 4.938 0 01-2.449-4.896 31.01 31.01 0 00.002-7.653 4.933 4.933 0 012.449-4.892l-.249-.434.249.434a268.99 268.99 0 004.01-2.356l.37-.222-.165-.398-2.747-6.632-.165-.399-.418.105c-1.483.372-2.996.765-4.501 1.17a4.934 4.934 0 01-5.191-1.727 31.022 31.022 0 00-5.413-5.41 4.936 4.936 0 01-1.73-5.193c.405-1.507.799-3.02 1.17-4.504l.106-.418-.4-.165-6.632-2.747-.398-.165-.222.37a266.674 266.674 0 00-2.356 4.012 4.935 4.935 0 01-4.895 2.449 30.99 30.99 0 00-7.654-.002 4.934 4.934 0 01-4.892-2.449c-.78-1.353-1.57-2.701-2.355-4.01l-.222-.37-.399.165-6.632 2.747-.399.165.105.418c.373 1.487.766 3 1.17 4.501a4.934 4.934 0 01-1.727 5.192m54.051 42.923l-54.05-42.923m0 0a30.999 30.999 0 00-5.41 5.412l5.41-5.412zM77.29 80.677c-2.81-.33-5.652-.33-8.459-.001l8.46.001zm38.386 22.729l-.153-.37a.5.5 0 00-.307.415l-.001.024c0 .005-.001.01.042.014l.419-.083z"/><path d="M80.652 135.26c9.948-4.121 14.769-15.455 10.918-25.447a.496.496 0 01-.435-.032h-.001c-.031-.018-.054-.036-.058-.039a.208.208 0 00-.017-.014.22.22 0 01-.017-.016l-.007-.006-.003-.003-.07-.071-.011-.024M80.652 135.26l-.191-.462m.191.462l-.191-.462m.191.462a19.816 19.816 0 01-7.59 1.52 19.81 19.81 0 01-7.588-1.52m14.987-.462c9.824-4.07 14.519-15.358 10.49-25.19m-10.49 25.19a19.316 19.316 0 01-7.398 1.482c-2.505 0-5.011-.494-7.398-1.482m25.286-25.19l-.028-.068c-4.079-9.848-15.41-14.542-25.258-10.463m25.286 10.531l-.028-.068.003-.002.44-.235a20.139 20.139 0 00-.178-.414.498.498 0 00-.265.651l.011.026.021.038.008.012.003.005c.001.003.003.005.417-.271l.002-.001-25.72-10.272m0 0c-9.848 4.08-14.542 15.411-10.462 25.258v.001a19.204 19.204 0 0010.462 10.462m0-35.72L54.74 124.526a19.702 19.702 0 0010.733 10.733m.19-.462l-.19.462m.19-.462l-.19.462m2.035-4.914a14.426 14.426 0 0011.107 0c7.394-3.063 10.917-11.569 7.855-18.962-2.314-5.584-7.73-8.959-13.427-8.959a14.43 14.43 0 00-5.535 1.105c-7.394 3.062-10.917 11.568-7.854 18.961a14.422 14.422 0 007.854 7.855zm87.464-64.837l-.428.062c-.915.133-1.848.261-2.784.383m3.212-.445l-3.276-.05m3.276.05v-.433m0 .433v-.433m-3.212.878l-.064-.496m.064.496l-.064-.496m.064.496a4.099 4.099 0 00-3.433 2.976 21.96 21.96 0 01-2.081 5.022 4.1 4.1 0 00.322 4.534m5.128-13.028a4.597 4.597 0 00-3.851 3.34 21.53 21.53 0 01-2.033 4.907 4.598 4.598 0 00.36 5.086m.396-.305l-.396.305m.396-.305c.574.746 1.144 1.498 1.698 2.24l.259.347-.306.305-2.896 2.896-.306.306-.346-.258a193.302 193.302 0 01-2.241-1.698 4.1 4.1 0 00-4.534-.323h-.001l-.246-.434m8.919-3.38l-.396.304m0 0c.572.744 1.14 1.494 1.693 2.234l-2.895 2.896a193.417 193.417 0 01-2.235-1.694 4.6 4.6 0 00-5.086-.36m0 0a21.54 21.54 0 01-4.907 2.034l4.907-2.034zm17.323-16.79v-4.529l-.428-.063c-.915-.133-1.848-.261-2.784-.383l-.065.495.065-.495a4.098 4.098 0 01-3.433-2.976 22.071 22.071 0 00-2.081-5.022 4.1 4.1 0 01.322-4.533c.575-.748 1.144-1.5 1.698-2.241l.259-.347-.306-.306-2.896-2.896-.306-.306-.346.259c-.746.556-1.496 1.125-2.241 1.698a4.1 4.1 0 01-4.534.322 22.022 22.022 0 00-5.022-2.081 4.098 4.098 0 01-2.976-3.434c-.122-.935-.25-1.868-.383-2.782l-.062-.429h-4.961l-.062.428a206.07 206.07 0 00-.384 2.784 4.096 4.096 0 01-2.976 3.433m33.902 23.402L121.07 41.673m-9.554 40.95h-.001c-.745.573-1.495 1.142-2.241 1.698l-.346.258-.306-.306-2.896-2.895-.305-.306.258-.347c.554-.743 1.124-1.494 1.698-2.241a4.101 4.101 0 00.322-4.534 22.012 22.012 0 01-2.081-5.021 4.098 4.098 0 00-3.433-2.976c-.936-.122-1.869-.25-2.784-.384l-.428-.062v-4.96l.428-.063c.915-.132 1.847-.26 2.784-.383a4.099 4.099 0 003.433-2.975 22.01 22.01 0 012.08-5.022h.001a4.101 4.101 0 00-.322-4.534l.396-.305 3.743 35.358zm0 0a4.098 4.098 0 014.534-.322m-4.534.322l4.534-.322m0 0a21.996 21.996 0 005.021 2.08l-5.021-2.08zm5.02-40.628a22.016 22.016 0 00-5.02 2.081l5.02-2.081zm31.454 13.664l.093.31.32.042c1.036.138 2.065.284 3.067.434 1.99.298 3.496 2.047 3.496 4.066v5.676c0 2.019-1.506 3.769-3.496 4.066-1.002.15-2.031.296-3.068.434l-.319.043-.093.309a26.622 26.622 0 01-2.047 4.94l-.153.283.196.257c.633.828 1.258 1.659 1.862 2.476 1.198 1.618 1.025 3.92-.403 5.348l-4.013 4.013c-1.427 1.427-3.73 1.6-5.348.403l-.297.402.297-.402c-.818-.606-1.65-1.231-2.476-1.863l-.256-.196-.285.153a26.537 26.537 0 01-4.939 2.047l-.309.093-.043.32a190.992 190.992 0 01-.433 3.067c-.298 1.991-2.048 3.496-4.066 3.496h-5.676c-2.019 0-3.769-1.505-4.067-3.496a203.687 203.687 0 01-.433-3.067l-.043-.32-.309-.093a26.585 26.585 0 01-4.939-2.047l-.284-.153-.257.196c-.827.632-1.657 1.257-2.476 1.863-1.619 1.197-3.92 1.024-5.348-.403l-4.013-4.014c-1.428-1.426-1.6-3.729-.404-5.347.605-.817 1.23-1.648 1.863-2.477l.196-.256-.153-.284a26.71 26.71 0 01-2.047-4.94l-.093-.308-.319-.043a195.393 195.393 0 01-3.067-.434c-1.991-.298-3.497-2.047-3.497-4.066v-5.676c0-2.019 1.506-3.768 3.497-4.066 1.002-.15 2.03-.295 3.067-.434l.32-.043.093-.309a26.56 26.56 0 012.047-4.939l.153-.284-.196-.256c-.634-.83-1.259-1.66-1.863-2.477-1.197-1.619-1.024-3.92.404-5.348l4.013-4.013c1.427-1.427 3.729-1.6 5.347-.403.819.606 1.65 1.23 2.477 1.863l.256.196.284-.153a26.559 26.559 0 014.94-2.047l.308-.093.043-.32c.139-1.037.284-2.066.434-3.067.297-1.99 2.047-3.496 4.066-3.496h5.676c2.018 0 3.768 1.506 4.066 3.496.15 1.002.295 2.03.433 3.067l.043.32.309.093c1.709.514 3.366 1.2 4.939 2.047l.284.153.257-.196c.827-.632 1.658-1.256 2.477-1.863 1.618-1.197 3.919-1.024 5.347.404l4.014 4.013c1.427 1.426 1.6 3.728.403 5.347a200.35 200.35 0 01-1.863 2.477l-.196.256.153.284a26.578 26.578 0 012.047 4.94zm-38.417-16.254a187.76 187.76 0 00-2.482-1.868l7.515-.218a27.08 27.08 0 00-5.033 2.086z"/><path d="M134.017 63.027a7.051 7.051 0 00-7.044-7.045 7.052 7.052 0 00-7.045 7.045 7.052 7.052 0 007.045 7.044 7.051 7.051 0 007.044-7.044zm-18.326 0c0-6.22 5.062-11.281 11.282-11.281s11.281 5.06 11.281 11.281c0 6.22-5.061 11.282-11.281 11.282-6.22 0-11.282-5.061-11.282-11.282z"/></g><defs><clipPath id="iclip0"><path transform="translate(30 30)" d="M0 0h130v130H0z"/></clipPath><filter id="ifilter0_d" x="0" y="0" width="190" height="190" filterUnits="userSpaceOnUse" color-interpolation-filters="sRGB"><feFlood flood-opacity="0" result="BackgroundImageFix"/><feColorMatrix in="SourceAlpha" values="0 0 0 0 0 0 0 0 0 0 0 0 0 0 0 0 0 0 127 0"/><feOffset/><feGaussianBlur stdDeviation="15"/><feColorMatrix values="0 0 0 0 0.603922 0 0 0 0 0.603922 0 0 0 0 0.603922 0 0 0 0.25 0"/><feBlend in2="BackgroundImageFix" result="effect1_dropShadow"/><feBlend in="SourceGraphic" in2="effect1_dropShadow" result="shape"/></filter></defs></symbol><symbol viewBox="0 0 72 86" id="map-location" xmlns="http://www.w3.org/2000/svg"><path d="M36 74.807l19.8-19.593a27.618 27.618 0 007.662-14.186 27.436 27.436 0 00-1.594-16.007 27.771 27.771 0 00-10.312-12.434A28.212 28.212 0 0036 7.917a28.212 28.212 0 00-15.556 4.67A27.771 27.771 0 0010.132 25.02a27.436 27.436 0 00-1.594 16.007A27.618 27.618 0 0016.2 55.214L36 74.807zM36 86L10.544 60.811a35.509 35.509 0 01-9.852-18.24 35.275 35.275 0 012.048-20.58A35.707 35.707 0 0116 6.002 36.272 36.272 0 0136 0c7.12 0 14.08 2.09 20 6.003A35.707 35.707 0 0169.26 21.99a35.275 35.275 0 012.048 20.582 35.508 35.508 0 01-9.852 18.239L36 86zm0-42.462a8.043 8.043 0 005.657-2.318A7.874 7.874 0 0044 35.622c0-2.1-.843-4.113-2.343-5.598A8.043 8.043 0 0036 27.706a8.044 8.044 0 00-5.657 2.319A7.875 7.875 0 0028 35.621c0 2.1.843 4.113 2.343 5.598A8.044 8.044 0 0036 43.538zm0 7.916a16.086 16.086 0 01-11.314-4.637c-3-2.969-4.686-6.996-4.686-11.195s1.686-8.226 4.686-11.195c3-2.97 7.07-4.637 11.314-4.637 4.243 0 8.313 1.668 11.314 4.637 3 2.97 4.686 6.996 4.686 11.195s-1.686 8.226-4.686 11.195c-3 2.97-7.07 4.637-11.314 4.637z"/></symbol><symbol viewBox="0 0 59 59" id="mouse" xmlns="http://www.w3.org/2000/svg"><path d="M29.5 0C18.045 0 8.726 9.465 8.726 21.1v16.8c0 11.635 9.32 21.1 20.774 21.1s20.774-9.436 20.774-21.034V21.099C50.274 9.465 40.954 0 29.5 0zm16.866 37.966c0 9.444-7.565 17.127-16.866 17.127-9.3 0-16.866-7.713-16.866-17.192V21.099c0-9.48 7.566-17.192 16.866-17.192S46.366 11.62 46.366 21.1v16.867z" fill-opacity=".5"/><path d="M29.5 16.15a1.954 1.954 0 00-1.954 1.954v6.838a1.954 1.954 0 103.908 0v-6.838c0-1.08-.875-1.954-1.954-1.954z" fill-opacity=".5"/></symbol><symbol viewBox="0 0 33 32" id="phone" xmlns="http://www.w3.org/2000/svg"><path d="M12.199 13.249a18.428 18.428 0 006.992 6.8l1.563-2.13a1.773 1.773 0 011.046-.678 1.814 1.814 0 011.244.169 20.627 20.627 0 008.108 2.347c.443.034.857.23 1.16.548.301.318.47.735.469 1.168v7.678c0 .426-.162.837-.456 1.153a1.787 1.787 0 01-1.133.56c-.937.094-1.882.14-2.834.14C13.214 31.004.937 19.062.937 4.331c0-.926.047-1.844.145-2.757A1.7 1.7 0 011.656.473 1.797 1.797 0 012.842.029h7.894c.445 0 .873.163 1.2.457.327.294.528.697.564 1.128a19.262 19.262 0 002.413 7.887c.207.369.269.8.172 1.21-.096.41-.344.772-.696 1.016l-2.19 1.522zm-4.462-1.131l3.361-2.335a22.608 22.608 0 01-1.94-6.312H4.492c-.01.286-.015.573-.015.86-.002 12.83 10.69 23.232 23.881 23.232.296 0 .591-.006.885-.018v-4.538a24.223 24.223 0 01-6.49-1.887l-2.4 3.27a22.308 22.308 0 01-2.81-1.291l-.102-.057a21.92 21.92 0 01-8.319-8.092l-.058-.1a21.147 21.147 0 01-1.327-2.732z"/></symbol><symbol viewBox="0 0 134 134" id="recommended" xmlns="http://www.w3.org/2000/svg"><mask id="ma" maskUnits="userSpaceOnUse" x="0" y="0" width="135" height="134"><path d="M0 0h135v134H0z"/><path d="M102.147 59.284c0-4.179-3.4-7.578-7.579-7.578H80.641c3.384-3.804 5.595-8.135 6.022-12.02.261-2.373-.472-4.729-2.012-6.463-1.407-1.586-3.332-2.47-5.42-2.488h-.072a7.538 7.538 0 00-5.344 2.194 7.485 7.485 0 00-2.23 5.32c-.074.44-.85 1.962-2.749 3.767-1.555 1.48-4.24 3.512-8.205 4.8-1.554.504-2.975 1.433-4.223 2.762a27.333 27.333 0 01-2.848 2.624 4.241 4.241 0 00-1.992-.496H38.34a4.276 4.276 0 00-4.271 4.272V91.25a4.276 4.276 0 004.271 4.271h13.228a4.274 4.274 0 003.735-2.204h33.754a6.483 6.483 0 006.476-6.476c0-1.2-.328-2.326-.9-3.291a6.478 6.478 0 003.104-5.528c0-1.2-.328-2.325-.9-3.29a6.478 6.478 0 003.105-5.528 6.44 6.44 0 00-1.127-3.647 7.579 7.579 0 003.332-6.274zm-7.579 3.444h-1.102a2.067 2.067 0 000 4.134 2.345 2.345 0 012.343 2.343 2.345 2.345 0 01-2.343 2.342h-2.205a2.067 2.067 0 000 4.134 2.345 2.345 0 012.343 2.343 2.345 2.345 0 01-2.343 2.342h-2.204a2.067 2.067 0 000 4.134 2.345 2.345 0 012.342 2.342 2.345 2.345 0 01-2.342 2.343H55.839v-19.98a2.067 2.067 0 00-4.133 0v22.046a.138.138 0 01-.138.138H38.34a.138.138 0 01-.137-.138V55.977c0-.076.061-.138.137-.138h13.228c.076 0 .138.062.138.138v4.41a2.067 2.067 0 004.133 0v-4.41c0-.1-.008-.199-.015-.297a31.38 31.38 0 003.598-3.273c.765-.815 1.6-1.373 2.485-1.66 4.865-1.58 8.14-4.123 10.029-5.978 2.368-2.325 3.782-4.75 3.782-6.484a3.38 3.38 0 011.007-2.42c.657-.651 1.528-.996 2.469-.997 1.158.01 1.925.604 2.365 1.1.755.849 1.126 2.07.995 3.266-.452 4.107-3.736 9.183-8.367 12.932a2.067 2.067 0 001.3 3.673h19.08c1.9 0 3.446 1.545 3.446 3.445s-1.545 3.444-3.445 3.444z"/><path d="M44.954 82.548a2.086 2.086 0 00-2.077 2.077c0 1.142.936 2.078 2.077 2.078a2.086 2.086 0 002.078-2.078 2.086 2.086 0 00-2.078-2.077z"/><path d="M129.316 67l3.55-9.395a2.065 2.065 0 00-.32-2.023l-6.28-7.839.473-10.033a2.065 2.065 0 00-.93-1.824l-8.394-5.515-2.65-9.688a2.068 2.068 0 00-1.448-1.448l-9.688-2.65-5.515-8.394a2.07 2.07 0 00-1.825-.93l-10.032.473-7.839-6.28a2.067 2.067 0 00-2.023-.32L67 4.684l-9.395-3.55a2.066 2.066 0 00-2.023.32l-7.839 6.28-10.033-.473a2.063 2.063 0 00-1.825.93l-5.514 8.395-9.688 2.65a2.066 2.066 0 00-1.448 1.448l-2.65 9.688-8.395 5.514a2.067 2.067 0 00-.93 1.825l.474 10.032-6.28 7.839a2.067 2.067 0 00-.32 2.023L4.684 67l-3.55 9.395a2.066 2.066 0 00.32 2.023l6.28 7.84L7.26 96.29c-.035.73.319 1.424.93 1.825l8.394 5.514 2.65 9.688a2.065 2.065 0 001.448 1.448l9.688 2.65 5.514 8.395a2.073 2.073 0 001.825.93l10.033-.474 7.838 6.28c.57.457 1.34.579 2.023.321L67 129.316l9.395 3.551a2.062 2.062 0 002.023-.321l7.839-6.28 10.032.474a2.072 2.072 0 001.825-.93l5.515-8.395 9.688-2.65a2.068 2.068 0 001.448-1.448l2.65-9.688 8.394-5.514a2.065 2.065 0 00.93-1.825l-.473-10.033 6.28-7.839c.457-.57.579-1.339.32-2.023L129.316 67zm-4.143.73l3.41 9.024-6.032 7.528a2.068 2.068 0 00-.451 1.39l.455 9.635-8.062 5.296a2.065 2.065 0 00-.86 1.182l-2.544 9.304-9.305 2.545a2.07 2.07 0 00-1.182.859l-5.296 8.062-9.635-.455a2.069 2.069 0 00-1.39.452l-7.527 6.031-9.023-3.41a2.066 2.066 0 00-1.462 0l-9.023 3.41-7.528-6.031a2.07 2.07 0 00-1.39-.452l-9.635.455-5.295-8.062a2.065 2.065 0 00-1.183-.859l-9.304-2.545-2.545-9.304a2.064 2.064 0 00-.859-1.182l-8.062-5.296.455-9.635a2.066 2.066 0 00-.452-1.39l-6.031-7.528 3.41-9.023c.178-.47.178-.99 0-1.461l-3.41-9.024 6.031-7.527c.315-.393.476-.887.452-1.39l-.455-9.635 8.062-5.296c.42-.276.726-.697.86-1.182l2.544-9.305 9.304-2.544a2.068 2.068 0 001.183-.86l5.295-8.062 9.636.455c.502.024.996-.137 1.39-.451l7.527-6.032 9.023 3.41c.471.178.99.178 1.462 0l9.023-3.41 7.527 6.032c.393.315.888.475 1.39.451l9.635-.455 5.296 8.063c.276.42.697.726 1.182.859l9.305 2.544 2.544 9.305c.133.485.439.905.86 1.182l8.062 5.296-.455 9.635a2.07 2.07 0 00.451 1.39l6.032 7.527-3.41 9.024c-.178.47-.178.99 0 1.46z"/><path d="M105.836 31.312a54.2 54.2 0 00-3.242-3.241 2.067 2.067 0 10-2.795 3.045 50.052 50.052 0 012.991 2.991c.408.444.965.67 1.523.67a2.067 2.067 0 001.523-3.464zm-9.803 3.651c-10.083-5.374-22.222-7.762-34.18-6.727-12.134 1.052-23.575 5.613-32.217 12.842-9.51 7.957-15.048 18.527-15.592 29.763-.54 11.17 3.882 22.015 12.452 30.536.414.411 1.005.623 1.601.623a2.34 2.34 0 001.345-.411c.884-.622.997-1.725.254-2.464-7.897-7.852-11.972-17.847-11.474-28.142.502-10.356 5.605-20.098 14.37-27.43 7.965-6.664 18.51-10.868 29.691-11.837 11.025-.956 22.213 1.246 31.503 6.197.974.52 2.266.28 2.886-.535.62-.815.334-1.896-.64-2.415zm15.443 3.689a2.067 2.067 0 00-3.486 2.22c5.85 9.184 8.451 20.244 7.322 31.142-1.145 11.054-6.112 21.477-13.985 29.351a48.492 48.492 0 01-32.412 14.206c-12.164.495-23.975-3.535-33.254-11.342a2.067 2.067 0 00-2.66 3.163c9.518 8.009 21.488 12.354 33.919 12.353.719 0 1.44-.014 2.162-.044a52.61 52.61 0 0035.168-15.413c8.543-8.542 13.932-19.853 15.174-31.848 1.224-11.822-1.598-23.822-7.948-33.788z"/></mask><path d="M102.147 59.284c0-4.179-3.4-7.578-7.579-7.578H80.641c3.384-3.804 5.595-8.135 6.022-12.02.261-2.373-.472-4.729-2.012-6.463-1.407-1.586-3.332-2.47-5.42-2.488h-.072a7.538 7.538 0 00-5.344 2.194 7.485 7.485 0 00-2.23 5.32c-.074.44-.85 1.962-2.749 3.767-1.555 1.48-4.24 3.512-8.205 4.8-1.554.504-2.975 1.433-4.223 2.762a27.333 27.333 0 01-2.848 2.624 4.241 4.241 0 00-1.992-.496H38.34a4.276 4.276 0 00-4.271 4.272V91.25a4.276 4.276 0 004.271 4.271h13.228a4.274 4.274 0 003.735-2.204h33.754a6.483 6.483 0 006.476-6.476c0-1.2-.328-2.326-.9-3.291a6.478 6.478 0 003.104-5.528c0-1.2-.328-2.325-.9-3.29a6.478 6.478 0 003.105-5.528 6.44 6.44 0 00-1.127-3.647 7.579 7.579 0 003.332-6.274zm-7.579 3.444h-1.102a2.067 2.067 0 000 4.134 2.345 2.345 0 012.343 2.343 2.345 2.345 0 01-2.343 2.342h-2.205a2.067 2.067 0 000 4.134 2.345 2.345 0 012.343 2.343 2.345 2.345 0 01-2.343 2.342h-2.204a2.067 2.067 0 000 4.134 2.345 2.345 0 012.342 2.342 2.345 2.345 0 01-2.342 2.343H55.839v-19.98a2.067 2.067 0 00-4.133 0v22.046a.138.138 0 01-.138.138H38.34a.138.138 0 01-.137-.138V55.977c0-.076.061-.138.137-.138h13.228c.076 0 .138.062.138.138v4.41a2.067 2.067 0 004.133 0v-4.41c0-.1-.008-.199-.015-.297a31.38 31.38 0 003.598-3.273c.765-.815 1.6-1.373 2.485-1.66 4.865-1.58 8.14-4.123 10.029-5.978 2.368-2.325 3.782-4.75 3.782-6.484a3.38 3.38 0 011.007-2.42c.657-.651 1.528-.996 2.469-.997 1.158.01 1.925.604 2.365 1.1.755.849 1.126 2.07.995 3.266-.452 4.107-3.736 9.183-8.367 12.932a2.067 2.067 0 001.3 3.673h19.08c1.9 0 3.446 1.545 3.446 3.445s-1.545 3.444-3.445 3.444z"/><path d="M44.954 82.548a2.086 2.086 0 00-2.077 2.077c0 1.142.936 2.078 2.077 2.078a2.086 2.086 0 002.078-2.078 2.086 2.086 0 00-2.078-2.077z"/><path d="M129.316 67l3.55-9.395a2.065 2.065 0 00-.32-2.023l-6.28-7.839.473-10.033a2.065 2.065 0 00-.93-1.824l-8.394-5.515-2.65-9.688a2.068 2.068 0 00-1.448-1.448l-9.688-2.65-5.515-8.394a2.07 2.07 0 00-1.825-.93l-10.032.473-7.839-6.28a2.067 2.067 0 00-2.023-.32L67 4.684l-9.395-3.55a2.066 2.066 0 00-2.023.32l-7.839 6.28-10.033-.473a2.063 2.063 0 00-1.825.93l-5.514 8.395-9.688 2.65a2.066 2.066 0 00-1.448 1.448l-2.65 9.688-8.395 5.514a2.067 2.067 0 00-.93 1.825l.474 10.032-6.28 7.839a2.067 2.067 0 00-.32 2.023L4.684 67l-3.55 9.395a2.066 2.066 0 00.32 2.023l6.28 7.84L7.26 96.29c-.035.73.319 1.424.93 1.825l8.394 5.514 2.65 9.688a2.065 2.065 0 001.448 1.448l9.688 2.65 5.514 8.395a2.073 2.073 0 001.825.93l10.033-.474 7.838 6.28c.57.457 1.34.579 2.023.321L67 129.316l9.395 3.551a2.062 2.062 0 002.023-.321l7.839-6.28 10.032.474a2.072 2.072 0 001.825-.93l5.515-8.395 9.688-2.65a2.068 2.068 0 001.448-1.448l2.65-9.688 8.394-5.514a2.065 2.065 0 00.93-1.825l-.473-10.033 6.28-7.839c.457-.57.579-1.339.32-2.023L129.316 67zm-4.143.73l3.41 9.024-6.032 7.528a2.068 2.068 0 00-.451 1.39l.455 9.635-8.062 5.296a2.065 2.065 0 00-.86 1.182l-2.544 9.304-9.305 2.545a2.07 2.07 0 00-1.182.859l-5.296 8.062-9.635-.455a2.069 2.069 0 00-1.39.452l-7.527 6.031-9.023-3.41a2.066 2.066 0 00-1.462 0l-9.023 3.41-7.528-6.031a2.07 2.07 0 00-1.39-.452l-9.635.455-5.295-8.062a2.065 2.065 0 00-1.183-.859l-9.304-2.545-2.545-9.304a2.064 2.064 0 00-.859-1.182l-8.062-5.296.455-9.635a2.066 2.066 0 00-.452-1.39l-6.031-7.528 3.41-9.023c.178-.47.178-.99 0-1.461l-3.41-9.024 6.031-7.527c.315-.393.476-.887.452-1.39l-.455-9.635 8.062-5.296c.42-.276.726-.697.86-1.182l2.544-9.305 9.304-2.544a2.068 2.068 0 001.183-.86l5.295-8.062 9.636.455c.502.024.996-.137 1.39-.451l7.527-6.032 9.023 3.41c.471.178.99.178 1.462 0l9.023-3.41 7.527 6.032c.393.315.888.475 1.39.451l9.635-.455 5.296 8.063c.276.42.697.726 1.182.859l9.305 2.544 2.544 9.305c.133.485.439.905.86 1.182l8.062 5.296-.455 9.635a2.07 2.07 0 00.451 1.39l6.032 7.527-3.41 9.024c-.178.47-.178.99 0 1.46z"/><path d="M105.836 31.312a54.2 54.2 0 00-3.242-3.241 2.067 2.067 0 10-2.795 3.045 50.052 50.052 0 012.991 2.991c.408.444.965.67 1.523.67a2.067 2.067 0 001.523-3.464zm-9.803 3.651c-10.083-5.374-22.222-7.762-34.18-6.727-12.134 1.052-23.575 5.613-32.217 12.842-9.51 7.957-15.048 18.527-15.592 29.763-.54 11.17 3.882 22.015 12.452 30.536.414.411 1.005.623 1.601.623a2.34 2.34 0 001.345-.411c.884-.622.997-1.725.254-2.464-7.897-7.852-11.972-17.847-11.474-28.142.502-10.356 5.605-20.098 14.37-27.43 7.965-6.664 18.51-10.868 29.691-11.837 11.025-.956 22.213 1.246 31.503 6.197.974.52 2.266.28 2.886-.535.62-.815.334-1.896-.64-2.415zm15.443 3.689a2.067 2.067 0 00-3.486 2.22c5.85 9.184 8.451 20.244 7.322 31.142-1.145 11.054-6.112 21.477-13.985 29.351a48.492 48.492 0 01-32.412 14.206c-12.164.495-23.975-3.535-33.254-11.342a2.067 2.067 0 00-2.66 3.163c9.518 8.009 21.488 12.354 33.919 12.353.719 0 1.44-.014 2.162-.044a52.61 52.61 0 0035.168-15.413c8.543-8.542 13.932-19.853 15.174-31.848 1.224-11.822-1.598-23.822-7.948-33.788z"/><path d="M102.147 59.284c0-4.179-3.4-7.578-7.579-7.578H80.641c3.384-3.804 5.595-8.135 6.022-12.02.261-2.373-.472-4.729-2.012-6.463-1.407-1.586-3.332-2.47-5.42-2.488h-.072a7.538 7.538 0 00-5.344 2.194 7.485 7.485 0 00-2.23 5.32c-.074.44-.85 1.962-2.749 3.767-1.555 1.48-4.24 3.512-8.205 4.8-1.554.504-2.975 1.433-4.223 2.762a27.333 27.333 0 01-2.848 2.624 4.241 4.241 0 00-1.992-.496H38.34a4.276 4.276 0 00-4.271 4.272V91.25a4.276 4.276 0 004.271 4.271h13.228a4.274 4.274 0 003.735-2.204h33.754a6.483 6.483 0 006.476-6.476c0-1.2-.328-2.326-.9-3.291a6.478 6.478 0 003.104-5.528c0-1.2-.328-2.325-.9-3.29a6.478 6.478 0 003.105-5.528 6.44 6.44 0 00-1.127-3.647 7.579 7.579 0 003.332-6.274zm-7.579 3.444h-1.102a2.067 2.067 0 000 4.134 2.345 2.345 0 012.343 2.343 2.345 2.345 0 01-2.343 2.342h-2.205a2.067 2.067 0 000 4.134 2.345 2.345 0 012.343 2.343 2.345 2.345 0 01-2.343 2.342h-2.204a2.067 2.067 0 000 4.134 2.345 2.345 0 012.342 2.342 2.345 2.345 0 01-2.342 2.343H55.839v-19.98a2.067 2.067 0 00-4.133 0v22.046a.138.138 0 01-.138.138H38.34a.138.138 0 01-.137-.138V55.977c0-.076.061-.138.137-.138h13.228c.076 0 .138.062.138.138v4.41a2.067 2.067 0 004.133 0v-4.41c0-.1-.008-.199-.015-.297a31.38 31.38 0 003.598-3.273c.765-.815 1.6-1.373 2.485-1.66 4.865-1.58 8.14-4.123 10.029-5.978 2.368-2.325 3.782-4.75 3.782-6.484a3.38 3.38 0 011.007-2.42c.657-.651 1.528-.996 2.469-.997 1.158.01 1.925.604 2.365 1.1.755.849 1.126 2.07.995 3.266-.452 4.107-3.736 9.183-8.367 12.932a2.067 2.067 0 001.3 3.673h19.08c1.9 0 3.446 1.545 3.446 3.445s-1.545 3.444-3.445 3.444z" mask="url(#ma)"/><path d="M44.954 82.548a2.086 2.086 0 00-2.077 2.077c0 1.142.936 2.078 2.077 2.078a2.086 2.086 0 002.078-2.078 2.086 2.086 0 00-2.078-2.077z" mask="url(#ma)"/><path d="M129.316 67l3.55-9.395a2.065 2.065 0 00-.32-2.023l-6.28-7.839.473-10.033a2.065 2.065 0 00-.93-1.824l-8.394-5.515-2.65-9.688a2.068 2.068 0 00-1.448-1.448l-9.688-2.65-5.515-8.394a2.07 2.07 0 00-1.825-.93l-10.032.473-7.839-6.28a2.067 2.067 0 00-2.023-.32L67 4.684l-9.395-3.55a2.066 2.066 0 00-2.023.32l-7.839 6.28-10.033-.473a2.063 2.063 0 00-1.825.93l-5.514 8.395-9.688 2.65a2.066 2.066 0 00-1.448 1.448l-2.65 9.688-8.395 5.514a2.067 2.067 0 00-.93 1.825l.474 10.032-6.28 7.839a2.067 2.067 0 00-.32 2.023L4.684 67l-3.55 9.395a2.066 2.066 0 00.32 2.023l6.28 7.84L7.26 96.29c-.035.73.319 1.424.93 1.825l8.394 5.514 2.65 9.688a2.065 2.065 0 001.448 1.448l9.688 2.65 5.514 8.395a2.073 2.073 0 001.825.93l10.033-.474 7.838 6.28c.57.457 1.34.579 2.023.321L67 129.316l9.395 3.551a2.062 2.062 0 002.023-.321l7.839-6.28 10.032.474a2.072 2.072 0 001.825-.93l5.515-8.395 9.688-2.65a2.068 2.068 0 001.448-1.448l2.65-9.688 8.394-5.514a2.065 2.065 0 00.93-1.825l-.473-10.033 6.28-7.839c.457-.57.579-1.339.32-2.023L129.316 67zm-4.143.73l3.41 9.024-6.032 7.528a2.068 2.068 0 00-.451 1.39l.455 9.635-8.062 5.296a2.065 2.065 0 00-.86 1.182l-2.544 9.304-9.305 2.545a2.07 2.07 0 00-1.182.859l-5.296 8.062-9.635-.455a2.069 2.069 0 00-1.39.452l-7.527 6.031-9.023-3.41a2.066 2.066 0 00-1.462 0l-9.023 3.41-7.528-6.031a2.07 2.07 0 00-1.39-.452l-9.635.455-5.295-8.062a2.065 2.065 0 00-1.183-.859l-9.304-2.545-2.545-9.304a2.064 2.064 0 00-.859-1.182l-8.062-5.296.455-9.635a2.066 2.066 0 00-.452-1.39l-6.031-7.528 3.41-9.023c.178-.47.178-.99 0-1.461l-3.41-9.024 6.031-7.527c.315-.393.476-.887.452-1.39l-.455-9.635 8.062-5.296c.42-.276.726-.697.86-1.182l2.544-9.305 9.304-2.544a2.068 2.068 0 001.183-.86l5.295-8.062 9.636.455c.502.024.996-.137 1.39-.451l7.527-6.032 9.023 3.41c.471.178.99.178 1.462 0l9.023-3.41 7.527 6.032c.393.315.888.475 1.39.451l9.635-.455 5.296 8.063c.276.42.697.726 1.182.859l9.305 2.544 2.544 9.305c.133.485.439.905.86 1.182l8.062 5.296-.455 9.635a2.07 2.07 0 00.451 1.39l6.032 7.527-3.41 9.024c-.178.47-.178.99 0 1.46z" mask="url(#ma)"/><path d="M105.836 31.312a54.2 54.2 0 00-3.242-3.241 2.067 2.067 0 10-2.795 3.045 50.052 50.052 0 012.991 2.991c.408.444.965.67 1.523.67a2.067 2.067 0 001.523-3.464zm-9.803 3.651c-10.083-5.374-22.222-7.762-34.18-6.727-12.134 1.052-23.575 5.613-32.217 12.842-9.51 7.957-15.048 18.527-15.592 29.763-.54 11.17 3.882 22.015 12.452 30.536.414.411 1.005.623 1.601.623a2.34 2.34 0 001.345-.411c.884-.622.997-1.725.254-2.464-7.897-7.852-11.972-17.847-11.474-28.142.502-10.356 5.605-20.098 14.37-27.43 7.965-6.664 18.51-10.868 29.691-11.837 11.025-.956 22.213 1.246 31.503 6.197.974.52 2.266.28 2.886-.535.62-.815.334-1.896-.64-2.415zm15.443 3.689a2.067 2.067 0 00-3.486 2.22c5.85 9.184 8.451 20.244 7.322 31.142-1.145 11.054-6.112 21.477-13.985 29.351a48.492 48.492 0 01-32.412 14.206c-12.164.495-23.975-3.535-33.254-11.342a2.067 2.067 0 00-2.66 3.163c9.518 8.009 21.488 12.354 33.919 12.353.719 0 1.44-.014 2.162-.044a52.61 52.61 0 0035.168-15.413c8.543-8.542 13.932-19.853 15.174-31.848 1.224-11.822-1.598-23.822-7.948-33.788z" mask="url(#ma)"/></symbol><symbol viewBox="0 0 512 512" id="ruble" xmlns="http://www.w3.org/2000/svg"><path d="M256 81c5.38 0 9.77-4.26 9.99-9.59.01-.13.01-.27.01-.41 0-5.52-4.48-10-10-10s-10 4.48-10 10c0 .14 0 .28.01.41.22 5.33 4.61 9.59 9.99 9.59zm30 185c33.146 0 60-26.849 60-60 0-33.084-26.916-60-60-60h-90c-5.522 0-10 4.477-10 10v90h-10c-5.522 0-10 4.477-10 10s4.478 10 10 10h10v40h-10c-5.522 0-10 4.477-10 10s4.478 10 10 10h10v50c0 5.523 4.478 10 10 10s10-4.477 10-10v-50h70c5.522 0 10-4.477 10-10s-4.478-10-10-10h-70v-40h80zm-80-100h80c22.056 0 40 17.944 40 40 0 22.091-17.904 40-40 40h-80v-80z"/><path d="M256 512c137.852 0 256-118.096 256-256C512 118.359 394.114 0 256 0 118.148 0 0 118.096 0 256c0 137.839 118.096 256 256 256zm0-492c125.72 0 236 110.28 236 236S381.72 492 256 492 20 381.72 20 256 130.28 20 256 20z"/><path d="M256 452c104.2 0 196-91.099 196-196 0-89.035-66.843-170.37-153.861-191.032-5.374-1.277-10.764 2.045-12.04 7.419-1.275 5.374 2.046 10.764 7.419 12.04C372.466 103.172 432 176.933 432 256c0 93.757-82.243 176-176 176S80 349.757 80 256c0-79.067 59.534-152.828 138.482-171.573 5.373-1.276 8.694-6.666 7.419-12.04-1.276-5.375-6.668-8.697-12.04-7.419C126.911 85.614 60 166.893 60 256c0 104.2 91.099 196 196 196z"/></symbol><symbol viewBox="0 0 187 184" id="ruble2" xmlns="http://www.w3.org/2000/svg"><g filter="url(#ofilter0_d)"><path d="M96.58 33.171l-.002.01v.01c-.057 1.201-1.214 2.263-2.762 2.263s-2.705-1.062-2.761-2.263l-.001-.01v-.01a.993.993 0 01-.002-.073c0-1.24 1.173-2.357 2.764-2.357 1.59 0 2.764 1.117 2.764 2.357v.073zm4.74 59.102c9.469 0 17.141-7.67 17.141-17.14 0-9.452-7.689-17.14-17.141-17.14H76.36a3.274 3.274 0 00-3.274 3.273v24.46h-2.273a3.274 3.274 0 000 6.547h2.273v10.094h-2.273a3.274 3.274 0 000 6.547h2.273v13.367a3.274 3.274 0 006.547 0v-13.367h18.914a3.273 3.273 0 000-6.547H79.633V92.273h21.687zM79.633 64.54h21.687c5.841 0 10.594 4.753 10.594 10.594 0 5.85-4.742 10.594-10.594 10.594H79.633V64.539z"/><path d="M102.384 33.357a3.639 3.639 0 002.703 4.382l.115-.486-.115.486c24.602 5.834 43.149 28.797 43.149 53.38 0 29.159-25.63 54.757-54.828 54.757-29.198 0-54.828-25.598-54.828-54.757 0-24.583 18.547-47.546 43.15-53.38l-.116-.486.115.486a3.64 3.64 0 002.704-4.382 3.643 3.643 0 00-4.387-2.7C52.497 37.19 31.293 62.9 31.293 91.119c0 32.99 28.861 62.036 62.115 62.036 33.031 0 62.115-28.823 62.115-62.036 0-28.195-21.183-53.924-48.753-60.462a3.643 3.643 0 00-4.386 2.7z"/></g><defs><filter id="ofilter0_d" x="-8" y="-12" width="202" height="202" filterUnits="userSpaceOnUse" color-interpolation-filters="sRGB"><feFlood flood-opacity="0" result="BackgroundImageFix"/><feColorMatrix in="SourceAlpha" values="0 0 0 0 0 0 0 0 0 0 0 0 0 0 0 0 0 0 127 0"/><feOffset/><feGaussianBlur stdDeviation="15"/><feColorMatrix values="0 0 0 0 0.603922 0 0 0 0 0.603922 0 0 0 0 0.603922 0 0 0 0.25 0"/><feBlend in2="BackgroundImageFix" result="effect1_dropShadow"/><feBlend in="SourceGraphic" in2="effect1_dropShadow" result="shape"/></filter></defs></symbol><symbol viewBox="0 0 130 130" id="settings-gear" xmlns="http://www.w3.org/2000/svg"><mask id="pa"><path d="M83.496 93.624a273.181 273.181 0 00-4.173-2.457c.33-2.81.33-5.654.002-8.46a264.38 264.38 0 004.17-2.455c2.29-1.376 3.245-4.28 2.22-6.754l-2.989-7.216c-1.025-2.474-3.752-3.853-6.346-3.207a271.06 271.06 0 00-4.685 1.213 36.334 36.334 0 00-5.983-5.98c.42-1.57.829-3.146 1.213-4.688.646-2.593-.733-5.32-3.207-6.346l-7.215-2.988c-2.474-1.026-5.379-.072-6.755 2.219a271.475 271.475 0 00-2.457 4.172 36.34 36.34 0 00-8.459-.001 269.395 269.395 0 00-2.455-4.171c-1.377-2.29-4.28-3.244-6.755-2.22l-7.216 2.99c-2.473 1.024-3.852 3.752-3.206 6.345.384 1.545.792 3.12 1.212 4.686a36.317 36.317 0 00-5.98 5.983c-1.573-.423-3.149-.83-4.688-1.214-2.593-.647-5.32.733-6.346 3.207L.41 73.498c-1.024 2.474-.07 5.378 2.22 6.754 1.365.82 2.767 1.646 4.172 2.457-.33 2.81-.33 5.652-.001 8.459a273.264 273.264 0 00-4.172 2.455C.34 95-.615 97.903.41 100.378l2.99 7.216c1.025 2.473 3.751 3.853 6.346 3.206 1.54-.383 3.115-.791 4.685-1.212a36.327 36.327 0 005.983 5.98c-.422 1.571-.83 3.147-1.213 4.687-.646 2.593.732 5.321 3.206 6.346l7.216 2.989c.67.278 1.372.41 2.066.41 1.87 0 3.685-.959 4.69-2.629.814-1.354 1.64-2.757 2.456-4.172 2.81.329 5.653.329 8.46.001.807 1.4 1.632 2.802 2.455 4.171 1.376 2.29 4.28 3.244 6.755 2.219l7.215-2.988c2.474-1.025 3.853-3.753 3.207-6.346-.382-1.532-.79-3.107-1.213-4.686a36.322 36.322 0 005.98-5.982c1.57.42 3.145.828 4.688 1.213 2.593.646 5.32-.733 6.346-3.207l2.989-7.216c1.024-2.474.07-5.378-2.22-6.754zm-6.025 11.451a267.423 267.423 0 01-4.495-1.168 5.436 5.436 0 00-5.718 1.906 30.524 30.524 0 01-5.324 5.325 5.434 5.434 0 00-1.902 5.715c.407 1.512.8 3.021 1.168 4.493l-6.632 2.747a260.594 260.594 0 01-2.351-4.003 5.437 5.437 0 00-5.387-2.696c-2.496.31-5.03.31-7.53-.001a5.434 5.434 0 00-5.39 2.695 268.993 268.993 0 01-2.352 4.005l-6.633-2.747c.371-1.48.764-2.99 1.169-4.495a5.437 5.437 0 00-1.906-5.718 30.476 30.476 0 01-5.325-5.323 5.434 5.434 0 00-5.716-1.903c-1.504.405-3.014.798-4.493 1.168l-2.747-6.632a262.15 262.15 0 014.003-2.351 5.435 5.435 0 002.696-5.387 30.6 30.6 0 010-7.53 5.436 5.436 0 00-2.695-5.39 263.198 263.198 0 01-4.004-2.353L8.654 68.8c1.478.37 2.988.763 4.495 1.168a5.437 5.437 0 005.718-1.906 30.499 30.499 0 015.323-5.325 5.434 5.434 0 001.902-5.716 273.788 273.788 0 01-1.168-4.492l6.633-2.747a265.006 265.006 0 012.35 4.003 5.434 5.434 0 005.388 2.695 30.49 30.49 0 017.53.002 5.436 5.436 0 005.39-2.696 265.676 265.676 0 012.352-4.004l6.633 2.747a266.007 266.007 0 01-1.17 4.494 5.436 5.436 0 001.907 5.718 30.517 30.517 0 015.325 5.323 5.434 5.434 0 005.716 1.903c1.503-.404 3.012-.797 4.492-1.168l2.747 6.632a265.612 265.612 0 01-4.002 2.351 5.434 5.434 0 00-2.697 5.387 30.6 30.6 0 010 7.53 5.437 5.437 0 002.695 5.391c1.345.774 2.69 1.564 4.004 2.352l-2.746 6.633z"/><path d="M61.385 79.349C57.2 69.246 45.577 64.43 35.473 68.615 25.371 72.8 20.556 84.425 24.741 94.527a19.704 19.704 0 0010.733 10.733 19.81 19.81 0 007.589 1.52c2.57 0 5.142-.507 7.589-1.52 10.102-4.185 14.917-15.809 10.733-25.912zm-12.96 20.535a13.921 13.921 0 01-10.725 0 13.923 13.923 0 01-7.583-7.584c-2.957-7.138.445-15.352 7.583-18.308a13.933 13.933 0 015.344-1.067c5.502 0 10.732 3.26 12.965 8.65 2.957 7.139-.446 15.352-7.584 18.309zm77.653-74.256c-1.005-.15-2.036-.296-3.075-.435a27.096 27.096 0 00-2.086-5.032c.636-.831 1.263-1.664 1.868-2.483 1.345-1.818 1.15-4.397-.452-5.998l-4.014-4.013c-1.601-1.602-4.18-1.796-5.998-.451a191.8 191.8 0 00-2.483 1.867 27.066 27.066 0 00-5.032-2.086 193.15 193.15 0 00-.435-3.075C104.037 1.686 102.076 0 99.811 0h-5.676c-2.266 0-4.226 1.686-4.56 3.922-.15 1.004-.297 2.036-.436 3.075a27.07 27.07 0 00-5.032 2.086c-.828-.634-1.662-1.26-2.482-1.868-1.819-1.345-4.397-1.15-5.999.451l-4.013 4.013c-1.602 1.602-1.797 4.181-.452 6 .605.818 1.232 1.65 1.867 2.482a27.109 27.109 0 00-2.085 5.032 199.4 199.4 0 00-3.075.435c-2.236.335-3.923 2.295-3.923 4.56v5.677c0 2.265 1.686 4.226 3.923 4.56 1.004.151 2.036.297 3.075.436a27.103 27.103 0 002.085 5.032c-.635.83-1.262 1.663-1.868 2.483-1.344 1.818-1.15 4.397.452 5.998l4.014 4.013c1.602 1.602 4.18 1.796 5.998.452.821-.607 1.654-1.234 2.483-1.867a27.093 27.093 0 005.032 2.085c.139 1.039.285 2.07.435 3.075.335 2.236 2.295 3.923 4.56 3.923h5.677c2.265 0 4.226-1.687 4.56-3.923.15-1.005.296-2.036.435-3.075a27.058 27.058 0 005.032-2.086c.829.634 1.662 1.26 2.483 1.868 1.818 1.345 4.397 1.15 5.998-.451l4.014-4.014c1.602-1.601 1.796-4.18.451-5.998a185.21 185.21 0 00-1.867-2.483 27.136 27.136 0 002.086-5.032c1.038-.139 2.07-.285 3.075-.435 2.236-.335 3.922-2.295 3.922-4.56v-5.677c0-2.265-1.686-4.226-3.922-4.56zm-1.606 9.447c-.912.132-1.843.26-2.776.383a4.597 4.597 0 00-3.851 3.338 21.53 21.53 0 01-2.033 4.908 4.598 4.598 0 00.36 5.086c.572.744 1.14 1.494 1.693 2.234l-2.895 2.896a193.417 193.417 0 01-2.235-1.694 4.6 4.6 0 00-5.086-.36 21.54 21.54 0 01-4.907 2.034 4.597 4.597 0 00-3.34 3.85c-.12.934-.249 1.864-.382 2.776h-4.095c-.132-.912-.26-1.842-.382-2.775a4.598 4.598 0 00-3.34-3.851 21.518 21.518 0 01-4.907-2.034 4.598 4.598 0 00-5.086.36 175.37 175.37 0 01-2.235 1.694l-2.895-2.896c.553-.741 1.12-1.49 1.694-2.235a4.6 4.6 0 00.36-5.086 21.527 21.527 0 01-2.034-4.907 4.597 4.597 0 00-3.85-3.339c-.934-.122-1.865-.25-2.777-.383V30.98c.912-.132 1.843-.26 2.776-.382a4.597 4.597 0 003.85-3.339 21.516 21.516 0 012.034-4.907 4.6 4.6 0 00-.36-5.086 191.638 191.638 0 01-1.693-2.235l2.895-2.895a193.38 193.38 0 012.235 1.693 4.598 4.598 0 005.087.36 21.538 21.538 0 014.906-2.033 4.596 4.596 0 003.34-3.85c.121-.934.25-1.865.382-2.777h4.095c.133.912.26 1.843.382 2.776a4.598 4.598 0 003.339 3.85 21.523 21.523 0 014.908 2.034 4.6 4.6 0 005.086-.36 185.13 185.13 0 012.235-1.693l2.895 2.896c-.552.74-1.12 1.489-1.693 2.235a4.599 4.599 0 00-.361 5.085 21.557 21.557 0 012.034 4.908 4.597 4.597 0 003.85 3.338c.934.122 1.865.25 2.777.383v4.095z"/><path d="M96.973 21.246c-6.496 0-11.782 5.285-11.782 11.781 0 6.497 5.285 11.782 11.782 11.782 6.496 0 11.781-5.285 11.781-11.782 0-6.496-5.285-11.781-11.781-11.781zm0 18.326a6.552 6.552 0 01-6.545-6.545 6.552 6.552 0 016.545-6.545 6.552 6.552 0 016.544 6.545 6.552 6.552 0 01-6.544 6.544z"/></mask><path d="M83.496 93.624a273.181 273.181 0 00-4.173-2.457c.33-2.81.33-5.654.002-8.46a264.38 264.38 0 004.17-2.455c2.29-1.376 3.245-4.28 2.22-6.754l-2.989-7.216c-1.025-2.474-3.752-3.853-6.346-3.207a271.06 271.06 0 00-4.685 1.213 36.334 36.334 0 00-5.983-5.98c.42-1.57.829-3.146 1.213-4.688.646-2.593-.733-5.32-3.207-6.346l-7.215-2.988c-2.474-1.026-5.379-.072-6.755 2.219a271.475 271.475 0 00-2.457 4.172 36.34 36.34 0 00-8.459-.001 269.395 269.395 0 00-2.455-4.171c-1.377-2.29-4.28-3.244-6.755-2.22l-7.216 2.99c-2.473 1.024-3.852 3.752-3.206 6.345.384 1.545.792 3.12 1.212 4.686a36.317 36.317 0 00-5.98 5.983c-1.573-.423-3.149-.83-4.688-1.214-2.593-.647-5.32.733-6.346 3.207L.41 73.498c-1.024 2.474-.07 5.378 2.22 6.754 1.365.82 2.767 1.646 4.172 2.457-.33 2.81-.33 5.652-.001 8.459a273.264 273.264 0 00-4.172 2.455C.34 95-.615 97.903.41 100.378l2.99 7.216c1.025 2.473 3.751 3.853 6.346 3.206 1.54-.383 3.115-.791 4.685-1.212a36.327 36.327 0 005.983 5.98c-.422 1.571-.83 3.147-1.213 4.687-.646 2.593.732 5.321 3.206 6.346l7.216 2.989c.67.278 1.372.41 2.066.41 1.87 0 3.685-.959 4.69-2.629.814-1.354 1.64-2.757 2.456-4.172 2.81.329 5.653.329 8.46.001.807 1.4 1.632 2.802 2.455 4.171 1.376 2.29 4.28 3.244 6.755 2.219l7.215-2.988c2.474-1.025 3.853-3.753 3.207-6.346-.382-1.532-.79-3.107-1.213-4.686a36.322 36.322 0 005.98-5.982c1.57.42 3.145.828 4.688 1.213 2.593.646 5.32-.733 6.346-3.207l2.989-7.216c1.024-2.474.07-5.378-2.22-6.754zm-6.025 11.451a267.423 267.423 0 01-4.495-1.168 5.436 5.436 0 00-5.718 1.906 30.524 30.524 0 01-5.324 5.325 5.434 5.434 0 00-1.902 5.715c.407 1.512.8 3.021 1.168 4.493l-6.632 2.747a260.594 260.594 0 01-2.351-4.003 5.437 5.437 0 00-5.387-2.696c-2.496.31-5.03.31-7.53-.001a5.434 5.434 0 00-5.39 2.695 268.993 268.993 0 01-2.352 4.005l-6.633-2.747c.371-1.48.764-2.99 1.169-4.495a5.437 5.437 0 00-1.906-5.718 30.476 30.476 0 01-5.325-5.323 5.434 5.434 0 00-5.716-1.903c-1.504.405-3.014.798-4.493 1.168l-2.747-6.632a262.15 262.15 0 014.003-2.351 5.435 5.435 0 002.696-5.387 30.6 30.6 0 010-7.53 5.436 5.436 0 00-2.695-5.39 263.198 263.198 0 01-4.004-2.353L8.654 68.8c1.478.37 2.988.763 4.495 1.168a5.437 5.437 0 005.718-1.906 30.499 30.499 0 015.323-5.325 5.434 5.434 0 001.902-5.716 273.788 273.788 0 01-1.168-4.492l6.633-2.747a265.006 265.006 0 012.35 4.003 5.434 5.434 0 005.388 2.695 30.49 30.49 0 017.53.002 5.436 5.436 0 005.39-2.696 265.676 265.676 0 012.352-4.004l6.633 2.747a266.007 266.007 0 01-1.17 4.494 5.436 5.436 0 001.907 5.718 30.517 30.517 0 015.325 5.323 5.434 5.434 0 005.716 1.903c1.503-.404 3.012-.797 4.492-1.168l2.747 6.632a265.612 265.612 0 01-4.002 2.351 5.434 5.434 0 00-2.697 5.387 30.6 30.6 0 010 7.53 5.437 5.437 0 002.695 5.391c1.345.774 2.69 1.564 4.004 2.352l-2.746 6.633z"/><path d="M61.385 79.349C57.2 69.246 45.577 64.43 35.473 68.615 25.371 72.8 20.556 84.425 24.741 94.527a19.704 19.704 0 0010.733 10.733 19.81 19.81 0 007.589 1.52c2.57 0 5.142-.507 7.589-1.52 10.102-4.185 14.917-15.809 10.733-25.912zm-12.96 20.535a13.921 13.921 0 01-10.725 0 13.923 13.923 0 01-7.583-7.584c-2.957-7.138.445-15.352 7.583-18.308a13.933 13.933 0 015.344-1.067c5.502 0 10.732 3.26 12.965 8.65 2.957 7.139-.446 15.352-7.584 18.309zm77.653-74.256c-1.005-.15-2.036-.296-3.075-.435a27.096 27.096 0 00-2.086-5.032c.636-.831 1.263-1.664 1.868-2.483 1.345-1.818 1.15-4.397-.452-5.998l-4.014-4.013c-1.601-1.602-4.18-1.796-5.998-.451a191.8 191.8 0 00-2.483 1.867 27.066 27.066 0 00-5.032-2.086 193.15 193.15 0 00-.435-3.075C104.037 1.686 102.076 0 99.811 0h-5.676c-2.266 0-4.226 1.686-4.56 3.922-.15 1.004-.297 2.036-.436 3.075a27.07 27.07 0 00-5.032 2.086c-.828-.634-1.662-1.26-2.482-1.868-1.819-1.345-4.397-1.15-5.999.451l-4.013 4.013c-1.602 1.602-1.797 4.181-.452 6 .605.818 1.232 1.65 1.867 2.482a27.109 27.109 0 00-2.085 5.032 199.4 199.4 0 00-3.075.435c-2.236.335-3.923 2.295-3.923 4.56v5.677c0 2.265 1.686 4.226 3.923 4.56 1.004.151 2.036.297 3.075.436a27.103 27.103 0 002.085 5.032c-.635.83-1.262 1.663-1.868 2.483-1.344 1.818-1.15 4.397.452 5.998l4.014 4.013c1.602 1.602 4.18 1.796 5.998.452.821-.607 1.654-1.234 2.483-1.867a27.093 27.093 0 005.032 2.085c.139 1.039.285 2.07.435 3.075.335 2.236 2.295 3.923 4.56 3.923h5.677c2.265 0 4.226-1.687 4.56-3.923.15-1.005.296-2.036.435-3.075a27.058 27.058 0 005.032-2.086c.829.634 1.662 1.26 2.483 1.868 1.818 1.345 4.397 1.15 5.998-.451l4.014-4.014c1.602-1.601 1.796-4.18.451-5.998a185.21 185.21 0 00-1.867-2.483 27.136 27.136 0 002.086-5.032c1.038-.139 2.07-.285 3.075-.435 2.236-.335 3.922-2.295 3.922-4.56v-5.677c0-2.265-1.686-4.226-3.922-4.56zm-1.606 9.447c-.912.132-1.843.26-2.776.383a4.597 4.597 0 00-3.851 3.338 21.53 21.53 0 01-2.033 4.908 4.598 4.598 0 00.36 5.086c.572.744 1.14 1.494 1.693 2.234l-2.895 2.896a193.417 193.417 0 01-2.235-1.694 4.6 4.6 0 00-5.086-.36 21.54 21.54 0 01-4.907 2.034 4.597 4.597 0 00-3.34 3.85c-.12.934-.249 1.864-.382 2.776h-4.095c-.132-.912-.26-1.842-.382-2.775a4.598 4.598 0 00-3.34-3.851 21.518 21.518 0 01-4.907-2.034 4.598 4.598 0 00-5.086.36 175.37 175.37 0 01-2.235 1.694l-2.895-2.896c.553-.741 1.12-1.49 1.694-2.235a4.6 4.6 0 00.36-5.086 21.527 21.527 0 01-2.034-4.907 4.597 4.597 0 00-3.85-3.339c-.934-.122-1.865-.25-2.777-.383V30.98c.912-.132 1.843-.26 2.776-.382a4.597 4.597 0 003.85-3.339 21.516 21.516 0 012.034-4.907 4.6 4.6 0 00-.36-5.086 191.638 191.638 0 01-1.693-2.235l2.895-2.895a193.38 193.38 0 012.235 1.693 4.598 4.598 0 005.087.36 21.538 21.538 0 014.906-2.033 4.596 4.596 0 003.34-3.85c.121-.934.25-1.865.382-2.777h4.095c.133.912.26 1.843.382 2.776a4.598 4.598 0 003.339 3.85 21.523 21.523 0 014.908 2.034 4.6 4.6 0 005.086-.36 185.13 185.13 0 012.235-1.693l2.895 2.896c-.552.74-1.12 1.489-1.693 2.235a4.599 4.599 0 00-.361 5.085 21.557 21.557 0 012.034 4.908 4.597 4.597 0 003.85 3.338c.934.122 1.865.25 2.777.383v4.095z"/><path d="M96.973 21.246c-6.496 0-11.782 5.285-11.782 11.781 0 6.497 5.285 11.782 11.782 11.782 6.496 0 11.781-5.285 11.781-11.782 0-6.496-5.285-11.781-11.781-11.781zm0 18.326a6.552 6.552 0 01-6.545-6.545 6.552 6.552 0 016.545-6.545 6.552 6.552 0 016.544 6.545 6.552 6.552 0 01-6.544 6.544z"/><path d="M83.496 93.624a273.181 273.181 0 00-4.173-2.457c.33-2.81.33-5.654.002-8.46a264.38 264.38 0 004.17-2.455c2.29-1.376 3.245-4.28 2.22-6.754l-2.989-7.216c-1.025-2.474-3.752-3.853-6.346-3.207a271.06 271.06 0 00-4.685 1.213 36.334 36.334 0 00-5.983-5.98c.42-1.57.829-3.146 1.213-4.688.646-2.593-.733-5.32-3.207-6.346l-7.215-2.988c-2.474-1.026-5.379-.072-6.755 2.219a271.475 271.475 0 00-2.457 4.172 36.34 36.34 0 00-8.459-.001 269.395 269.395 0 00-2.455-4.171c-1.377-2.29-4.28-3.244-6.755-2.22l-7.216 2.99c-2.473 1.024-3.852 3.752-3.206 6.345.384 1.545.792 3.12 1.212 4.686a36.317 36.317 0 00-5.98 5.983c-1.573-.423-3.149-.83-4.688-1.214-2.593-.647-5.32.733-6.346 3.207L.41 73.498c-1.024 2.474-.07 5.378 2.22 6.754 1.365.82 2.767 1.646 4.172 2.457-.33 2.81-.33 5.652-.001 8.459a273.264 273.264 0 00-4.172 2.455C.34 95-.615 97.903.41 100.378l2.99 7.216c1.025 2.473 3.751 3.853 6.346 3.206 1.54-.383 3.115-.791 4.685-1.212a36.327 36.327 0 005.983 5.98c-.422 1.571-.83 3.147-1.213 4.687-.646 2.593.732 5.321 3.206 6.346l7.216 2.989c.67.278 1.372.41 2.066.41 1.87 0 3.685-.959 4.69-2.629.814-1.354 1.64-2.757 2.456-4.172 2.81.329 5.653.329 8.46.001.807 1.4 1.632 2.802 2.455 4.171 1.376 2.29 4.28 3.244 6.755 2.219l7.215-2.988c2.474-1.025 3.853-3.753 3.207-6.346-.382-1.532-.79-3.107-1.213-4.686a36.322 36.322 0 005.98-5.982c1.57.42 3.145.828 4.688 1.213 2.593.646 5.32-.733 6.346-3.207l2.989-7.216c1.024-2.474.07-5.378-2.22-6.754zm-6.025 11.451a267.423 267.423 0 01-4.495-1.168 5.436 5.436 0 00-5.718 1.906 30.524 30.524 0 01-5.324 5.325 5.434 5.434 0 00-1.902 5.715c.407 1.512.8 3.021 1.168 4.493l-6.632 2.747a260.594 260.594 0 01-2.351-4.003 5.437 5.437 0 00-5.387-2.696c-2.496.31-5.03.31-7.53-.001a5.434 5.434 0 00-5.39 2.695 268.993 268.993 0 01-2.352 4.005l-6.633-2.747c.371-1.48.764-2.99 1.169-4.495a5.437 5.437 0 00-1.906-5.718 30.476 30.476 0 01-5.325-5.323 5.434 5.434 0 00-5.716-1.903c-1.504.405-3.014.798-4.493 1.168l-2.747-6.632a262.15 262.15 0 014.003-2.351 5.435 5.435 0 002.696-5.387 30.6 30.6 0 010-7.53 5.436 5.436 0 00-2.695-5.39 263.198 263.198 0 01-4.004-2.353L8.654 68.8c1.478.37 2.988.763 4.495 1.168a5.437 5.437 0 005.718-1.906 30.499 30.499 0 015.323-5.325 5.434 5.434 0 001.902-5.716 273.788 273.788 0 01-1.168-4.492l6.633-2.747a265.006 265.006 0 012.35 4.003 5.434 5.434 0 005.388 2.695 30.49 30.49 0 017.53.002 5.436 5.436 0 005.39-2.696 265.676 265.676 0 012.352-4.004l6.633 2.747a266.007 266.007 0 01-1.17 4.494 5.436 5.436 0 001.907 5.718 30.517 30.517 0 015.325 5.323 5.434 5.434 0 005.716 1.903c1.503-.404 3.012-.797 4.492-1.168l2.747 6.632a265.612 265.612 0 01-4.002 2.351 5.434 5.434 0 00-2.697 5.387 30.6 30.6 0 010 7.53 5.437 5.437 0 002.695 5.391c1.345.774 2.69 1.564 4.004 2.352l-2.746 6.633z" mask="url(#pa)"/><path d="M61.385 79.349C57.2 69.246 45.577 64.43 35.473 68.615 25.371 72.8 20.556 84.425 24.741 94.527a19.704 19.704 0 0010.733 10.733 19.81 19.81 0 007.589 1.52c2.57 0 5.142-.507 7.589-1.52 10.102-4.185 14.917-15.809 10.733-25.912zm-12.96 20.535a13.921 13.921 0 01-10.725 0 13.923 13.923 0 01-7.583-7.584c-2.957-7.138.445-15.352 7.583-18.308a13.933 13.933 0 015.344-1.067c5.502 0 10.732 3.26 12.965 8.65 2.957 7.139-.446 15.352-7.584 18.309zm77.653-74.256c-1.005-.15-2.036-.296-3.075-.435a27.096 27.096 0 00-2.086-5.032c.636-.831 1.263-1.664 1.868-2.483 1.345-1.818 1.15-4.397-.452-5.998l-4.014-4.013c-1.601-1.602-4.18-1.796-5.998-.451a191.8 191.8 0 00-2.483 1.867 27.066 27.066 0 00-5.032-2.086 193.15 193.15 0 00-.435-3.075C104.037 1.686 102.076 0 99.811 0h-5.676c-2.266 0-4.226 1.686-4.56 3.922-.15 1.004-.297 2.036-.436 3.075a27.07 27.07 0 00-5.032 2.086c-.828-.634-1.662-1.26-2.482-1.868-1.819-1.345-4.397-1.15-5.999.451l-4.013 4.013c-1.602 1.602-1.797 4.181-.452 6 .605.818 1.232 1.65 1.867 2.482a27.109 27.109 0 00-2.085 5.032 199.4 199.4 0 00-3.075.435c-2.236.335-3.923 2.295-3.923 4.56v5.677c0 2.265 1.686 4.226 3.923 4.56 1.004.151 2.036.297 3.075.436a27.103 27.103 0 002.085 5.032c-.635.83-1.262 1.663-1.868 2.483-1.344 1.818-1.15 4.397.452 5.998l4.014 4.013c1.602 1.602 4.18 1.796 5.998.452.821-.607 1.654-1.234 2.483-1.867a27.093 27.093 0 005.032 2.085c.139 1.039.285 2.07.435 3.075.335 2.236 2.295 3.923 4.56 3.923h5.677c2.265 0 4.226-1.687 4.56-3.923.15-1.005.296-2.036.435-3.075a27.058 27.058 0 005.032-2.086c.829.634 1.662 1.26 2.483 1.868 1.818 1.345 4.397 1.15 5.998-.451l4.014-4.014c1.602-1.601 1.796-4.18.451-5.998a185.21 185.21 0 00-1.867-2.483 27.136 27.136 0 002.086-5.032c1.038-.139 2.07-.285 3.075-.435 2.236-.335 3.922-2.295 3.922-4.56v-5.677c0-2.265-1.686-4.226-3.922-4.56zm-1.606 9.447c-.912.132-1.843.26-2.776.383a4.597 4.597 0 00-3.851 3.338 21.53 21.53 0 01-2.033 4.908 4.598 4.598 0 00.36 5.086c.572.744 1.14 1.494 1.693 2.234l-2.895 2.896a193.417 193.417 0 01-2.235-1.694 4.6 4.6 0 00-5.086-.36 21.54 21.54 0 01-4.907 2.034 4.597 4.597 0 00-3.34 3.85c-.12.934-.249 1.864-.382 2.776h-4.095c-.132-.912-.26-1.842-.382-2.775a4.598 4.598 0 00-3.34-3.851 21.518 21.518 0 01-4.907-2.034 4.598 4.598 0 00-5.086.36 175.37 175.37 0 01-2.235 1.694l-2.895-2.896c.553-.741 1.12-1.49 1.694-2.235a4.6 4.6 0 00.36-5.086 21.527 21.527 0 01-2.034-4.907 4.597 4.597 0 00-3.85-3.339c-.934-.122-1.865-.25-2.777-.383V30.98c.912-.132 1.843-.26 2.776-.382a4.597 4.597 0 003.85-3.339 21.516 21.516 0 012.034-4.907 4.6 4.6 0 00-.36-5.086 191.638 191.638 0 01-1.693-2.235l2.895-2.895a193.38 193.38 0 012.235 1.693 4.598 4.598 0 005.087.36 21.538 21.538 0 014.906-2.033 4.596 4.596 0 003.34-3.85c.121-.934.25-1.865.382-2.777h4.095c.133.912.26 1.843.382 2.776a4.598 4.598 0 003.339 3.85 21.523 21.523 0 014.908 2.034 4.6 4.6 0 005.086-.36 185.13 185.13 0 012.235-1.693l2.895 2.896c-.552.74-1.12 1.489-1.693 2.235a4.599 4.599 0 00-.361 5.085 21.557 21.557 0 012.034 4.908 4.597 4.597 0 003.85 3.338c.934.122 1.865.25 2.777.383v4.095z" mask="url(#pa)"/><path d="M96.973 21.246c-6.496 0-11.782 5.285-11.782 11.781 0 6.497 5.285 11.782 11.782 11.782 6.496 0 11.781-5.285 11.781-11.782 0-6.496-5.285-11.781-11.781-11.781zm0 18.326a6.552 6.552 0 01-6.545-6.545 6.552 6.552 0 016.545-6.545 6.552 6.552 0 016.544 6.545 6.552 6.552 0 01-6.544 6.544z" mask="url(#pa)"/></symbol><symbol viewBox="0 0 130 130" id="sticker" xmlns="http://www.w3.org/2000/svg"><path d="M129.114 46.843a64.876 64.876 0 00-1.132-3.392l-.034-.096c-4.344-11.864-12.169-22.451-22.313-30.098C94.13 4.584 80.412 0 65.965 0 49.596 0 33.872 6.095 21.689 17.163a1.903 1.903 0 102.561 2.818C35.73 9.552 50.544 3.81 65.965 3.81c13.613 0 26.538 4.319 37.378 12.489 9.527 7.181 16.884 17.115 20.986 28.246.383 2.467.065 4.296-.974 5.583-1.342 1.662-4.009 2.6-7.927 2.787l-.081.006c-.583.03-1.166.07-1.747.116a19.848 19.848 0 00-.811-3.626 19.971 19.971 0 00-13.351-12.988L88.745 33.27l-6.303-9.198a19.97 19.97 0 00-16.477-8.682 19.97 19.97 0 00-16.478 8.683l-6.302 9.197-10.695 3.153A19.967 19.967 0 0019.141 49.41a19.966 19.966 0 003.167 18.353l6.798 8.836-.307 11.145c-.15 5.44 1.853 10.578 5.64 14.469 3.748 3.852 8.966 6.061 14.317 6.061h.002c1.697 0 3.38-.216 5.02-.644a65.935 65.935 0 00-.858 7.72l-.006.078c-.187 3.918-1.125 6.585-2.786 7.927-1.288 1.039-3.117 1.357-5.584.974-11.131-4.102-21.064-11.459-28.245-20.986-8.171-10.84-12.49-23.765-12.49-37.378 0-14.46 5.127-28.568 14.438-39.724a1.903 1.903 0 10-2.923-2.44C5.442 35.64 0 50.614 0 65.965c0 14.447 4.584 28.165 13.257 39.67 7.647 10.144 18.235 17.969 30.098 22.313l.095.034c1.12.407 2.251.787 3.393 1.132a20.6 20.6 0 005.974.886 20.659 20.659 0 0014.619-6.072l9.925-9.924a1.907 1.907 0 000-2.694 1.906 1.906 0 00-2.694 0l-9.924 9.925a16.862 16.862 0 01-12.073 4.953c2.437-2.065 3.8-5.594 4.045-10.506l.004-.067a62.025 62.025 0 0118.123-40.773 62.023 62.023 0 0140.773-18.123c.024 0 .047-.003.071-.005 4.91-.246 8.438-1.608 10.502-4.044a16.863 16.863 0 01-4.954 12.073l-40.259 40.26a1.904 1.904 0 102.694 2.693l40.259-40.26a20.636 20.636 0 005.186-20.593zM98.564 56a65.88 65.88 0 00-26.416 16.147 65.982 65.982 0 00-12.464 17.348l-9.311 3.31a4.725 4.725 0 01-4.42-.637 4.729 4.729 0 01-1.975-4.008l.371-13.485a8.629 8.629 0 00-1.78-5.48l-8.227-10.691a4.73 4.73 0 01-.759-4.403 4.725 4.725 0 013.202-3.114l12.939-3.815a8.629 8.629 0 004.663-3.387l7.626-11.128a4.727 4.727 0 013.951-2.083c1.605 0 3.045.76 3.951 2.083l7.628 11.128a8.626 8.626 0 004.661 3.387l12.94 3.814a4.735 4.735 0 012.879 2.35A4.88 4.88 0 0198.564 56zm3.802-1.097a8.653 8.653 0 00-.972-3.34 8.514 8.514 0 00-5.172-4.23l-12.94-3.815a4.795 4.795 0 01-2.597-1.886l-7.627-11.129a8.597 8.597 0 00-14.187 0l-7.626 11.129a4.801 4.801 0 01-2.597 1.886l-12.94 3.815a8.597 8.597 0 00-5.747 5.592 8.594 8.594 0 001.363 7.9l8.226 10.692a4.813 4.813 0 01.993 3.053l-.371 13.486a8.595 8.595 0 003.54 7.193 8.596 8.596 0 007.937 1.145l5.889-2.094a65.68 65.68 0 00-2.885 9.058l-.469.167a16.15 16.15 0 01-5.426.941h-.002c-4.328 0-8.553-1.79-11.587-4.91-3.063-3.148-4.684-7.306-4.562-11.708l.324-11.822a1.905 1.905 0 00-.393-1.213l-7.212-9.373a16.16 16.16 0 01-2.563-14.854 16.16 16.16 0 0110.804-10.512l11.344-3.343a1.9 1.9 0 001.032-.75l6.686-9.755A16.16 16.16 0 0165.965 19.2 16.16 16.16 0 0179.3 26.227l6.686 9.754c.248.362.612.627 1.032.751l11.344 3.343a16.163 16.163 0 0111.452 13.37 65.645 65.645 0 00-7.448 1.46z"/></symbol><symbol viewBox="0 0 465.2 465.2" id="time" xmlns="http://www.w3.org/2000/svg"><path d="M279.591 423.714a192.461 192.461 0 01-11.629 2.52c-10.148 1.887-16.857 11.647-14.98 21.804a18.651 18.651 0 007.618 11.876 18.64 18.64 0 0014.175 3.099 233.175 233.175 0 0013.854-3.008c10.021-2.494 16.126-12.646 13.626-22.662-2.494-10.025-12.637-16.125-22.664-13.629zm138.296-250.667a18.644 18.644 0 006.97 9.398c4.684 3.299 10.813 4.409 16.662 2.475 9.806-3.256 15.119-13.83 11.875-23.631a232.327 232.327 0 00-4.865-13.314c-3.836-9.59-14.714-14.259-24.309-10.423-9.585 3.834-14.256 14.715-10.417 24.308a194.816 194.816 0 014.084 11.187zM340.36 397.013a195.86 195.86 0 01-10.134 6.261c-8.949 5.162-12.014 16.601-6.854 25.546a18.664 18.664 0 005.416 5.942c5.769 4.059 13.604 4.667 20.127.909a233.049 233.049 0 0012.062-7.452c8.614-5.691 10.985-17.294 5.291-25.912-5.693-8.621-17.291-10.989-25.908-5.294zm124.662-171.734c-.407-10.322-9.101-18.356-19.426-17.953-10.312.407-18.352 9.104-17.947 19.422.155 3.945.195 7.949.104 11.89-.145 6.473 3.021 12.243 7.941 15.711a18.647 18.647 0 0010.345 3.401c10.322.229 18.876-7.958 19.105-18.285.103-4.709.064-9.48-.122-14.186zm-50.187 122.537c-8.277-6.21-19.987-4.524-26.186 3.738a195.193 195.193 0 01-7.434 9.298c-6.69 7.86-5.745 19.666 2.115 26.361.448.38.901.729 1.371 1.057 7.814 5.509 18.674 4.243 24.992-3.171a232.358 232.358 0 008.874-11.102c6.2-8.262 4.522-19.98-3.732-26.181zm27.49-67.603c-9.855-3.09-20.35 2.396-23.438 12.251a198.06 198.06 0 01-3.906 11.253c-3.105 8.156-.13 17.13 6.69 21.939a18.635 18.635 0 004.126 2.19c9.649 3.682 20.454-1.159 24.132-10.812a240.351 240.351 0 004.646-13.382c3.085-9.857-2.397-20.349-12.25-23.439zM197.999 426.402a193.1 193.1 0 01-47.968-15.244c-.18-.094-.341-.201-.53-.287a204.256 204.256 0 01-10.63-5.382c-.012-.014-.034-.023-.053-.031a199.491 199.491 0 01-18.606-11.628C32.24 331.86 11.088 209.872 73.062 121.901c13.476-19.122 29.784-35.075 47.965-47.719.224-.156.448-.311.67-.468 64.067-44.144 151.06-47.119 219.089-1.757l-14.611 21.111c-4.062 5.876-1.563 10.158 5.548 9.518l63.467-5.682c7.12-.64 11.378-6.799 9.463-13.675L387.61 21.823c-1.908-6.884-6.793-7.708-10.859-1.833l-14.645 21.161C312.182 7.638 252.303-5.141 192.87 5.165a235.263 235.263 0 00-17.709 3.78c-.045.008-.081.013-.117.021-.225.055-.453.128-.672.189-51.25 13.161-95.965 43.052-127.872 85.7-.269.319-.546.631-.8.978a220.276 220.276 0 00-3.145 4.353 229.217 229.217 0 00-4.938 7.308c-.199.296-.351.597-.525.896C10.762 149.191-1.938 196.361.24 244.383c.005.158-.004.317 0 .479a227.87 227.87 0 001.088 14.129c.027.302.094.588.145.89a230.909 230.909 0 001.998 14.145c8.344 48.138 31.052 91.455 65.079 125.16.079.079.161.165.241.247.028.031.059.047.086.076a235.637 235.637 0 0029.793 24.898c28.02 19.744 59.221 32.795 92.729 38.808 10.167 1.827 19.879-4.941 21.703-15.103 1.823-10.169-4.939-19.889-15.103-21.71z"/><path d="M221.124 83.198c-8.363 0-15.137 6.78-15.137 15.131v150.747l137.87 71.271a15.042 15.042 0 006.933 1.69c5.476 0 10.765-2.982 13.454-8.185 3.835-7.426.933-16.549-6.493-20.384L236.244 230.65V98.329c-.001-8.351-6.767-15.131-15.12-15.131z"/></symbol><symbol viewBox="0 0 31 31" id="work-time" xmlns="http://www.w3.org/2000/svg"><path d="M15.355 30.317C6.98 30.317.191 23.713.191 15.567.191 7.42 6.981.817 15.355.817c8.375 0 15.164 6.603 15.164 14.75 0 8.146-6.789 14.75-15.164 14.75zm0-2.95c3.218 0 6.303-1.244 8.578-3.457 2.275-2.212 3.553-5.214 3.553-8.343 0-3.13-1.278-6.131-3.553-8.344-2.275-2.213-5.36-3.456-8.578-3.456-3.217 0-6.303 1.243-8.578 3.456-2.275 2.213-3.553 5.214-3.553 8.344 0 3.13 1.278 6.13 3.553 8.343s5.36 3.457 8.578 3.457zm1.517-11.8h6.065v2.95H13.84V8.192h3.033v7.375z"/></symbol></svg>